<svg xmlns="http://www.w3.org/2000/svg" viewBox="0 0 100 80"><path d="M61.1 53.7l-.9 5.7c-3 .8-6.6 1.3-10.3 1.3-3.8 0-7.3-.5-10.4-1.3L38.3 52v7c-2.4-.7-4.5-1.7-6.1-2.9v-5.6c0-5.9 2-11.3 13.1-12.5 1.3.7 2.9 1.1 4.5 1.1 1.3 0 2.6-.3 3.7-.7-2.5 4-1.9 9.5 1.8 12.7 1.7 1.5 3.7 2.4 5.8 2.6zM49.9 36.9c5.1 0 9.2-4.1 9.2-9.2s-4.1-9.2-9.2-9.2-9.2 4.1-9.2 9.2c-.1 5.1 4 9.2 9.2 9.2zM62 53.7h-.6V59c2.2-.7 4.1-1.6 5.6-2.6v-4.1c-1.5.9-3.2 1.4-5 1.4zm6.2-4.5C66.6 51 64.4 52 62 52c-2 0-4-.7-5.5-2.1-3.4-3-3.7-8.2-.7-11.6 1.6-1.8 3.8-2.8 6.2-2.8 2 0 4 .7 5.5 2.1 3.4 3 3.7 8.2.7 11.6zm.3-7.3c.5-.5-1.2-2.3-1.7-1.7L62 44.7c-.1.1-.3.2-.6.2-.2 0-.4-.1-.6-.2l-2.6-2.4c-.4-.4-2.2 1.4-1.8 1.8l4.4 4.3c.1.1.3.2.6.2.2 0 7.1-6.7 7.1-6.7z" fill="#fff"/></svg>