<svg xmlns="http://www.w3.org/2000/svg" viewBox="0 0 100 80"><path d="M72.3 32.6c-1.3-3.2-4.3-5.5-7.8-5.7-1.8-5.1-6.6-8.8-12.4-8.8-5.7 0-10.6 3.7-12.4 8.8h-.1c-5 0-9.1 3.9-9.5 8.8h-1.9c-5.3 0-9.6 4.3-9.6 9.6v1.5c0 5.3 4.3 9.6 9.6 9.6h41.5c6.1 0 11.1-5 11.1-11.1v-1.7c0-5.4-3.7-9.8-8.5-11z" fill="#fff"/><path d="M41.4 45.1H37l-.8 2.6h-2.7L38 35.3h2.4L45 47.7h-2.7l-.9-2.6zm-3.7-2h3.1l-1.6-4.6-1.5 4.6zm11 .2v4.4h-2.6V35.3H51c.9 0 1.7.2 2.5.5.7.3 1.2.8 1.6 1.4.4.6.6 1.3.6 2.1 0 1.2-.4 2.2-1.2 2.9s-2 1-3.4 1h-2.4zm0-2.1H51c.7 0 1.2-.2 1.5-.5.4-.3.5-.8.5-1.4 0-.6-.2-1.1-.5-1.5-.4-.4-.9-.6-1.5-.6h-2.3v4zm11.4 6.5h-2.6V35.3h2.6v12.4zm7.2-2.6c0-.3-.1-.5-.4-.7s-.8-.3-1.4-.5c-2.2-.5-3.3-1.4-3.3-2.8 0-.8.3-1.5 1-2s1.6-.8 2.7-.8c1.2 0 2.1.3 2.8.8.7.6 1.1 1.3 1.1 2.1h-2.5c0-.4-.1-.6-.3-.9s-.6-.3-1.1-.3c-.4 0-.7.1-1 .3-.2.2-.3.4-.3.7 0 .3.1.5.4.7.3.2.7.3 1.3.4s1.1.3 1.5.4c1.3.5 1.9 1.3 1.9 2.5 0 .8-.4 1.5-1.1 2s-1.6.8-2.8.8c-.8 0-1.5-.1-2.1-.4-.6-.3-1.1-.7-1.4-1.1-.3-.5-.5-1-.5-1.6h2.3c0 .4.2.8.5 1 .3.2.7.3 1.2.3s.8-.1 1.1-.3.4-.3.4-.6z" fill="#22a3da"/></svg>