<svg version="1.1" id="Layer_1" xmlns="http://www.w3.org/2000/svg" x="0" y="0" viewBox="0 0 35 35" xml:space="preserve"><style>.st0{fill-rule:evenodd;clip-rule:evenodd;fill:#1ea5db}</style><path class="st0" d="M20.4 20.9c.5 0 1 .4 1 1 0 .5-.4 1-1 1-.5 0-1-.4-1-1 .1-.6.5-1 1-1zm-4.6 0c.5 0 1 .4 1 1 0 .5-.4 1-1 1-.5 0-1-.4-1-1 .1-.6.5-1 1-1zm-4.5 0c.5 0 1 .4 1 1 0 .5-.4 1-1 1-.5 0-1-.4-1-1s.4-1 1-1z"/><path class="st0" d="M20.4 20.9c.5 0 1 .4 1 1 0 .5-.4 1-1 1-.5 0-1-.4-1-1 .1-.6.5-1 1-1zm-4.6 0c.5 0 1 .4 1 1 0 .5-.4 1-1 1-.5 0-1-.4-1-1 .1-.6.5-1 1-1zm-4.5 0c.5 0 1 .4 1 1 0 .5-.4 1-1 1-.5 0-1-.4-1-1s.4-1 1-1z"/><path d="M3.6 17.3c.6 0 1-.2 1.3-.6.3-.4.4-1 .4-1.8V11c0-.5.1-.9.2-1.3s.4-.7.6-1c.2-.2.5-.4.8-.5.3-.1.6-.1.9-.1h1.4v1.2H8.1c-.3 0-.5.1-.7.2s-.3.3-.4.4c-.1.2-.1.4-.2.6V15c0 .5-.1 1-.2 1.3-.2.4-.3.6-.6.9-.2.2-.4.4-.7.5-.2.1-.4.2-.5.2.2.1.4.1.6.2.2.1.4.3.7.5.2.2.4.5.6.9.2.4.2.8.2 1.3v4.5c0 .2.1.4.2.6.1.2.2.3.4.4s.4.2.7.2h1.1v1.2H7.7c-.3 0-.6 0-.9-.1-.3-.1-.5-.2-.8-.5-.2-.2-.4-.5-.5-.8s-.1-.8-.1-1.3v-4c0-.8-.1-1.4-.4-1.8-.3-.4-.7-.6-1.3-.6v-1.3zm24.3 1.3c-.6 0-1 .2-1.3.6s-.4 1-.4 1.8v4c0 .5-.1.9-.2 1.3s-.3.6-.5.8c-.2.2-.5.4-.8.5-.3.1-.6.1-.9.1h-1.4v-1.2h1.1c.3 0 .5-.1.7-.2s.3-.3.4-.4c.1-.2.1-.4.2-.6s0-.4 0-.6v-3.9c0-.5.1-1 .2-1.3.2-.4.3-.6.6-.9s.4-.4.7-.5c.2-.1.4-.2.5-.2-.1 0-.3-.1-.5-.2s-.4-.2-.7-.5-.4-.5-.6-.9c-.2-.4-.2-.8-.2-1.3v-4.5c0-.2-.1-.4-.2-.6-.1-.2-.2-.3-.4-.4s-.4-.2-.7-.2h-1.1V8.1h1.4c.3 0 .6 0 .9.1.3.1.5.3.8.5.2.2.4.5.5.8.1.4.2.8.2 1.3v3.9c0 .8.1 1.4.4 1.8s.7.6 1.3.6v1.5z" fill="#1ea5db"/></svg>