<svg xmlns="http://www.w3.org/2000/svg" viewBox="0 0 108 80"><path d="M74.5 57.7H27.4c-5 0-9.1-4.1-9.1-9.1s4.1-9.1 9.1-9.1h.6c.2-7 5.9-12.6 12.9-12.6 1.8 0 3.4.4 4.9 1 2.1-5.7 7.5-9.7 13.9-9.7 8.1 0 14.7 6.6 14.7 14.7 0 .5 0 1.1-.1 1.6h.2C80.9 34.5 86 39.7 86 46c0 6.5-5.1 11.7-11.5 11.7z" fill="#fff"/><path d="M67.8 39.3c-.3 0-.7-.2-.8-.4l-.2-.3c-.2-.2-.2-.3-.2-.3-.2-.2-.3-.6-.2-.9l.9-2.1c.1-.3 0-.6-.2-.8l-1.7-1c-.3-.1-.6-.1-.8.2L63 35.3c-.2.2-.6.4-.9.3l-.7-.1c-.3 0-.6-.3-.8-.6l-.9-2.1c-.1-.3-.5-.5-.8-.4l-1.9.5c-.3.1-.5.4-.5.7l.2 2.3c0 .3-.2.7-.4.8l-.3.2c-.2.2-.3.2-.3.2-.2.2-.6.3-.9.2l-2.1-.8c-.3-.1-.6 0-.8.2l-1 1.7c-.1.3-.1.6.2.8l1.7 1.5c.2.2.4.6.3.9l-.1.7c0 .3-.3.6-.6.8l-2.1.9c-.3.1-.5.5-.4.8l.5 1.9c.1.3.4.5.7.5l2.3-.2c.3 0 .7.2.8.4l.2.3c.2.2.2.3.2.3.2.2.3.6.2.9l-.9 2.1c-.1.3 0 .6.2.8l1.7 1c.3.1.6.1.8-.2l1.5-1.7c.2-.2.6-.4.9-.3l.7.1c.3 0 .6.3.8.6l.9 2.1c.1.3.5.5.8.4l1.9-.5c.3-.1.5-.4.5-.7l-.2-2.3c0-.3.2-.7.4-.8l.3-.2c.2-.2.3-.2.3-.2.2-.2.6-.3.9-.2l2.1.8c.3.1.6 0 .8-.2l1-1.7c.1-.3.1-.6-.2-.8l-1.7-1.5c-.2-.2-.4-.6-.3-.9l.1-.7c0-.3.3-.6.5-.8l2.1-.9c.3-.1.5-.5.4-.8l-.5-1.9c-.1-.3-.4-.5-.7-.5l-2.1.3zm-4.2 7.9c-2.3 1.7-5.6 1.2-7.3-1.1s-1.2-5.6 1.1-7.2c2.3-1.7 5.6-1.2 7.2 1.1 1.8 2.3 1.3 5.5-1 7.2zM47.1 36.1c-.2.1-.5.1-.6-.1l-.2-.1-.3-.1c-.2-.1-.3-.3-.3-.5v-1.6c0-.2-.2-.4-.4-.5l-1.4-.2c-.2 0-.4.1-.5.3l-.5 1.5c-.1.2-.3.4-.5.4l-.5.1c-.2.1-.5 0-.6-.2L40.1 34c-.2-.1-.4-.2-.6-.1l-1.1.8c-.2.1-.2.4-.1.6l.7 1.4c.1.2.1.5-.1.6l-.1.2-.1.2c-.1.2-.3.3-.5.3h-1.6c-.2 0-.4.2-.5.4l-.2 1.4c0 .2.1.4.3.5l1.5.5c.2.1.4.3.4.5l.1.5c.1.2 0 .5-.2.6l-1 1.4c-.1.1-.2.4-.1.6l.8 1.1c.1.2.4.2.6.1l1.4-.7c.2-.1.5-.1.6.1l.2.1.2.1c.2.1.3.3.3.5v1.6c0 .2.2.4.4.5l1.4.2c.2 0 .4-.1.5-.3l.5-1.5c.1-.2.3-.4.5-.4l.5-.1c.2-.1.5 0 .6.2l1.2 1.1c.2.1.4.2.6.1l1.1-.8c.2-.1.2-.4.1-.6l-.7-1.4c-.1-.2-.1-.5.1-.6l.1-.2.1-.2c.1-.2.3-.3.5-.3h1.6c.2 0 .4-.2.5-.4L51 41c0-.2-.1-.4-.3-.5l-1.6-.5c-.2-.1-.4-.3-.4-.5l-.1-.5c-.1-.2 0-.5.2-.6l1.1-1.2c.1-.2.2-.4.1-.6l-.8-1.1c-.1-.2-.4-.2-.6-.1l-1.5.7zm-1.3 5.8c-.8 1.3-2.5 1.8-3.9 1-1.3-.8-1.8-2.5-1-3.9.8-1.3 2.5-1.8 3.9-1 1.4.9 1.8 2.6 1 3.9z" opacity=".8" fill="#44a5ab"/></svg>