<svg version="1.1" id="Layer_1" xmlns="http://www.w3.org/2000/svg" x="0" y="0" viewBox="0 0 31.3 26.1" xml:space="preserve"><style>.st0{fill:#1ea5db}</style><path class="st0" d="M20.4 14.5c.4 0 .8.3.8.8 0 .4-.3.8-.8.8-.4 0-.8-.3-.8-.8.1-.5.4-.8.8-.8zm-3.7 0c.4 0 .8.3.8.8 0 .4-.3.8-.8.8-.4 0-.8-.3-.8-.8.1-.5.4-.8.8-.8zm-3.6 0c.4 0 .8.3.8.8 0 .4-.3.8-.8.8-.4 0-.8-.3-.8-.8s.3-.8.8-.8z"/><path class="st0" d="M20.4 14.5c.4 0 .8.3.8.8 0 .4-.3.8-.8.8-.4 0-.8-.3-.8-.8.1-.5.4-.8.8-.8zm-3.7 0c.4 0 .8.3.8.8 0 .4-.3.8-.8.8-.4 0-.8-.3-.8-.8.1-.5.4-.8.8-.8zm-3.6 0c.4 0 .8.3.8.8 0 .4-.3.8-.8.8-.4 0-.8-.3-.8-.8s.3-.8.8-.8zm-6.2-2.9c.5 0 .8-.2 1-.5.2-.3.3-.8.3-1.4V6.5c0-.4.1-.7.2-1 .1-.3.3-.6.5-.8.2-.2.4-.3.6-.4s.5-.1.7-.1h1.1v1h-.9c-.2 0-.4.1-.6.2l-.2.2c-.1.2-.1.3-.1.5v3.6c0 .4-.1.8-.2 1-.2.3-.2.5-.5.7-.2.2-.3.3-.6.4-.2.1-.3.2-.4.2.2.1.3.1.5.2s.3.2.6.4c.2.2.3.4.5.7.2.3.2.6.2 1v3.6c0 .2.1.3.2.5s.2.2.3.3c.2.1.3.2.6.2h.9v1h-1.3c-.2 0-.5 0-.7-.1s-.4-.2-.6-.4c-.2-.2-.3-.4-.4-.6-.1-.2-.1-.6-.1-1v-3.2c0-.6-.1-1.1-.3-1.4s-.6-.5-1-.5l-.3-1.1c.1 0 0 0 0 0zm19.5 1c-.5 0-.8.2-1 .5-.2.3-.3.8-.3 1.4v3.2c0 .4-.1.7-.2 1-.1.3-.2.5-.4.6s-.4.3-.6.4-.5.1-.7.1H22v-1h.9c.2 0 .4-.1.6-.2.2-.1.2-.2.3-.3.1-.2.1-.3.2-.5s0-.3 0-.5v-3.1c0-.4.1-.8.2-1 .2-.3.2-.5.5-.7.2-.2.3-.3.6-.4.2-.1.3-.2.4-.2-.1 0-.2-.1-.4-.2s-.3-.2-.6-.4c-.2-.2-.3-.4-.5-.7-.2-.3-.2-.6-.2-1V6.1c0-.2-.1-.3-.2-.5s-.2-.2-.3-.3c-.2-.1-.3-.2-.6-.2H22v-1h1.1c.2 0 .5 0 .7.1.2.1.4.2.6.4.2.2.3.4.4.6.2.4.2.7.2 1.1v3.1c0 .6.1 1.1.3 1.4.2.3.6.5 1 .5v1.3z"/></svg>