<svg version="1.1" id="Layer_1" xmlns="http://www.w3.org/2000/svg" x="0" y="0" viewBox="0 0 100 80" xml:space="preserve"><style>.st1{stroke-miterlimit:10;fill:none;stroke:#44a5ab;stroke-width:2.5}</style><path d="M45 34.6c-1.2 0-2.1-.9-2.1-2.1 0-1.2.9-2.1 2.1-2.1 1.2 0 2.1.9 2.1 2.1 0 1.2-.9 2.1-2.1 2.1zm0-3.4c-.7 0-1.3.6-1.3 1.3 0 .7.6 1.3 1.3 1.3.7 0 1.3-.6 1.3-1.3 0-.7-.6-1.3-1.3-1.3zm6.7 3.4c-1.2 0-2.1-.9-2.1-2.1 0-1.2.9-2.1 2.1-2.1 1.2 0 2.1.9 2.1 2.1 0 1.2-.9 2.1-2.1 2.1zm0-3.4c-.7 0-1.3.6-1.3 1.3 0 .7.6 1.3 1.3 1.3.7 0 1.3-.6 1.3-1.3 0-.7-.5-1.3-1.3-1.3zm6.8 3.4c-1.2 0-2.1-.9-2.1-2.1 0-1.2.9-2.1 2.1-2.1 1.2 0 2.1.9 2.1 2.1 0 1.2-1 2.1-2.1 2.1zm0-3.4c-.7 0-1.3.6-1.3 1.3 0 .7.6 1.3 1.3 1.3.7 0 1.3-.6 1.3-1.3 0-.7-.6-1.3-1.3-1.3zM45 40.1c-1.2 0-2.1-.9-2.1-2.1s.9-2.1 2.1-2.1c1.2 0 2.1.9 2.1 2.1s-.9 2.1-2.1 2.1zm0-3.4c-.7 0-1.3.6-1.3 1.3s.6 1.3 1.3 1.3c.7 0 1.3-.6 1.3-1.3s-.6-1.3-1.3-1.3zm6.7 3.4c-1.2 0-2.1-.9-2.1-2.1s.9-2.1 2.1-2.1c1.2 0 2.1.9 2.1 2.1s-.9 2.1-2.1 2.1zm0-3.4c-.7 0-1.3.6-1.3 1.3s.6 1.3 1.3 1.3c.7 0 1.3-.6 1.3-1.3s-.5-1.3-1.3-1.3zm6.8 3.4c-1.2 0-2.1-.9-2.1-2.1s.9-2.1 2.1-2.1c1.2 0 2.1.9 2.1 2.1s-1 2.1-2.1 2.1zm0-3.4c-.7 0-1.3.6-1.3 1.3s.6 1.3 1.3 1.3c.7 0 1.3-.6 1.3-1.3s-.6-1.3-1.3-1.3zM45 45.6c-1.2 0-2.1-.9-2.1-2.1 0-1.2.9-2.1 2.1-2.1 1.2 0 2.1.9 2.1 2.1 0 1.1-.9 2.1-2.1 2.1zm0-3.4c-.7 0-1.3.6-1.3 1.3 0 .7.6 1.3 1.3 1.3.7 0 1.3-.6 1.3-1.3 0-.8-.6-1.3-1.3-1.3zm6.7 3.4c-1.2 0-2.1-.9-2.1-2.1 0-1.2.9-2.1 2.1-2.1 1.2 0 2.1.9 2.1 2.1 0 1.1-.9 2.1-2.1 2.1zm0-3.4c-.7 0-1.3.6-1.3 1.3 0 .7.6 1.3 1.3 1.3.7 0 1.3-.6 1.3-1.3 0-.8-.5-1.3-1.3-1.3zm6.8 3.4c-1.2 0-2.1-.9-2.1-2.1 0-1.2.9-2.1 2.1-2.1 1.2 0 2.1.9 2.1 2.1 0 1.1-1 2.1-2.1 2.1zm0-3.4c-.7 0-1.3.6-1.3 1.3 0 .7.6 1.3 1.3 1.3.7 0 1.3-.6 1.3-1.3 0-.8-.6-1.3-1.3-1.3zm-6.8 8.9c-1.2 0-2.1-.9-2.1-2.1s.9-2.1 2.1-2.1c1.2 0 2.1.9 2.1 2.1s-.9 2.1-2.1 2.1zm0-3.5c-.7 0-1.3.6-1.3 1.3s.6 1.3 1.3 1.3c.7 0 1.3-.6 1.3-1.3s-.5-1.3-1.3-1.3z" fill="#e63a29" stroke="#e63a29" stroke-width=".5" stroke-miterlimit="10"/><path class="st1" d="M31.9 47.5V32.9c0-11.2 9-20.2 20.2-20.2s20.2 9 20.2 20.2v14.6m0 1.1h3.6c1.1 0 2-.9 2-2v-8.3c0-1.1-.9-2-2-2h-3.6v12.3z"/><path class="st1" d="M27.6 48.6h4.3V36.3h-3.6c-1.1 0-2 .9-2 2v9c0 .7.6 1.3 1.3 1.3zM55.5 61h12.3c2.5 0 4.5-2 4.5-4.5v-7.9"/><circle class="st1" cx="52.1" cy="61" r="3.4"/><path class="st1" d="M72.3 36.3h-4.5v12.3h4.5M31.9 36.3h4.5v12.3h-4.5m34.5-30l-1.7 1.7c-.8.8-2.1.9-3 .2-5.7-4.4-13.6-4.4-19.3 0-.9.7-2.2.6-3-.2l-1.7-1.7"/></svg>