<svg version="1.1" id="Layer_3" xmlns="http://www.w3.org/2000/svg" x="0" y="0" viewBox="0 0 108 80" xml:space="preserve"><style>.st0{fill:none;stroke:#005c97;stroke-width:2;stroke-linecap:round;stroke-miterlimit:10}</style><path class="st0" d="M83.9 18.8c.2-1.7-.9-3.3-2.7-3.5-.2 0-18.4-2.6-18.4-2.6-1.6-.2-3.2-.5-4.3.2L26.4 37.1c-1 .8-1.3 2.3-.5 3.3L44.4 65c.8 1 2.3 1.3 3.3.5l32.2-24.2c1-.8 1.2-2.3 1.4-4 0 0 2.6-18.3 2.6-18.5z"/><path d="M72.6 29.7c3.1 0 5.6-2.5 5.6-5.6s-2.5-5.6-5.6-5.6c-3 0-5.5 2.5-5.5 5.6-.1 3.1 2.4 5.6 5.5 5.6zm0-9.3c2 0 3.7 1.7 3.7 3.7s-1.7 3.7-3.7 3.7-3.6-1.7-3.6-3.7 1.6-3.7 3.6-3.7z" fill="#005c97"/><path class="st0" d="M23.3 44.2l20.6 27.2c.8 1 2.3 1.3 3.3.5l32.2-24.2"/><text transform="rotate(51.83 -18.43 61.18)" font-size="26.293" font-family="AmericanTypewriter" fill="#e63a29">$</text></svg>