<svg version="1.1" id="Layer_1" xmlns="http://www.w3.org/2000/svg" x="0" y="0" viewBox="0 0 108 80" xml:space="preserve"><style>.st0{fill:#fff}.st1{fill:#44a5ab}</style><path class="st0" d="M82.3 54.9c-.3 1.6-2 2.7-3.6 2.3l-46.9-9.9c-1.6-.3-2.7-2-2.3-3.6l5.6-26.6c.3-1.6 2-2.7 3.6-2.3l46.9 9.9c1.6.3 2.7 2 2.3 3.6l-5.6 26.6z"/><path class="st1" d="M79.3 59c-.3 0-.7 0-1-.1L31.4 49c-1.2-.3-2.3-1-3-2.1-.7-1.1-.9-2.3-.7-3.6l5.6-26.6c.5-2.2 2.4-3.8 4.6-3.8.3 0 .7 0 1 .1L86 23c2.6.5 4.2 3.1 3.7 5.6L84 55.2c-.5 2.2-2.4 3.8-4.7 3.8zM38.1 16.3c-.6 0-1.2.5-1.3 1.1L31.1 44c-.1.4 0 .7.2 1 .2.3.5.5.9.6l46.9 9.9h.3c.6 0 1.2-.5 1.3-1.1l5.6-26.6c.2-.7-.3-1.4-1-1.6l-46.9-9.9h-.3z"/><path transform="rotate(-78.024 59.739 31.16)" class="st1" d="M55.9 4.1h7.8v54h-7.8z"/><path class="st0" d="M25 65.5c-2.1 0-3.9-1.7-3.9-3.9V34.4c0-2.1 1.7-3.9 3.9-3.9h48c2.1 0 3.9 1.7 3.9 3.9v27.2c0 2.1-1.7 3.9-3.9 3.9H25z"/><path class="st0" d="M73 31.4c1.7 0 3 1.4 3 3v27.2c0 1.7-1.4 3-3 3H25c-1.7 0-3-1.4-3-3V34.4c0-1.7 1.4-3 3-3h48zm0-1.7H25c-2.6 0-4.7 2.1-4.7 4.7v27.2c0 2.6 2.1 4.7 4.7 4.7h48c2.6 0 4.7-2.1 4.7-4.7V34.4c0-2.6-2.1-4.7-4.7-4.7z"/><path class="st1" d="M25 67.2c-3.1 0-5.6-2.5-5.6-5.6V34.4c0-3.1 2.5-5.6 5.6-5.6h48c3.1 0 5.6 2.5 5.6 5.6v27.2c0 3.1-2.5 5.6-5.6 5.6H25zm0-33.3c-.3 0-.5.2-.5.5v27.2c0 .3.2.5.5.5h48c.3 0 .5-.2.5-.5V34.4c0-.3-.2-.5-.5-.5H25z"/><path class="st0" d="M73 29.7c2.6 0 4.7 2.1 4.7 4.7v27.2c0 2.6-2.1 4.7-4.7 4.7H25c-2.6 0-4.7-2.1-4.7-4.7V34.4c0-2.6 2.1-4.7 4.7-4.7h48zM25 63h48c.7 0 1.4-.6 1.4-1.4V34.4c0-.7-.6-1.4-1.4-1.4H25c-.7 0-1.4.6-1.4 1.4v27.2c.1.8.7 1.4 1.4 1.4zm48-35H25c-3.5 0-6.4 2.9-6.4 6.4v27.2c0 3.5 2.9 6.4 6.4 6.4h48c3.5 0 6.4-2.9 6.4-6.4V34.4c0-3.5-2.9-6.4-6.4-6.4zm-47.6 6.8h47.3v26.5H25.4V34.8z"/><path class="st1" d="M22 39.2h54V47H22z"/></svg>