<svg version="1.1" id="Layer_1" xmlns="http://www.w3.org/2000/svg" x="0" y="0" viewBox="0 0 100 80" xml:space="preserve"><style>.st0{fill:#fff}</style><path class="st0" d="M61.1 32.5c.2.2.5.3.8.3.3 0 .6-.1.8-.4 1.5-1.6 2.3-3.7 2.2-5.9-.1-2.2-1-4.3-2.6-5.8-.5-.4-1.2-.4-1.6 0-.4.5-.4 1.2 0 1.6 1.2 1.1 1.8 2.6 1.9 4.1 0 1.6-.5 3.1-1.6 4.2-.4.7-.4 1.5.1 1.9z"/><path class="st0" d="M65.6 17.8c-.5-.4-1.2-.4-1.6 0-.4.5-.4 1.2 0 1.6 4.1 3.8 4.3 10.3.4 14.4-.4.5-.4 1.2 0 1.6.2.2.5.3.8.3.3 0 .6-.1.8-.4 4.9-4.9 4.7-12.8-.4-17.5z"/><path class="st0" d="M69.3 14.8c-.5-.4-1.2-.4-1.6 0-.4.5-.4 1.2 0 1.6 5.8 5.4 6 14.5.6 20.3-.4.5-.4 1.2 0 1.6.2.2.5.3.8.3.3 0 .6-.1.8-.4 3.1-3.2 4.7-7.5 4.5-11.9 0-4.3-1.8-8.4-5.1-11.5zM43.4 53.9l5.3 2.6-7.5 3.6 2.2-6.2zm8.2-6.9l6.4 5-6.6 3.2-6.4-3.1 6.6-5.1zm-6.5 2.1l2-5.5 2.6 2-4.6 3.5zm6.4-17.6l3.6 9.9-3.5 2.7-3.6-2.8 3.5-9.8zm-2.3-4.9c0-1.2 1-2.3 2.3-2.3s2.3 1 2.3 2.3c0 .7-.4 1.4-.9 1.8-.4.3-.8.5-1.4.5-.5 0-1-.2-1.4-.5-.5-.4-.9-1-.9-1.8zm8.6 22.3l-4.3-3.4 2.4-1.9 1.9 5.3zm4.1 11.4L54 56.5l5.5-2.7 2.4 6.5zm-25 8.1c.1 0 .3.1.4.1.5 0 .9-.3 1.1-.8l1.6-4.5 11.3-5.4L63 63.5l1.5 4.3c.2.6.9.9 1.5.7.6-.2.9-.9.7-1.5l-13-36.2c1.5-.8 2.5-2.4 2.5-4.2 0-2.6-2.1-4.8-4.8-4.8s-4.8 2.1-4.8 4.8c0 1.8 1 3.4 2.5 4.2l-11 30.9c-.2.2-.3.4-.3.7l-1.6 4.5c-.2.6.1 1.3.7 1.5zm5.7-45.9c.5-.4.5-1.2 0-1.6-.4-.5-1.2-.5-1.6 0-1.6 1.5-2.5 3.6-2.6 5.8-.1 2.2.7 4.3 2.2 5.9.2.2.5.4.8.4.3 0 .6-.1.8-.3.5-.4.5-1.2 0-1.6-1.1-1.2-1.7-2.7-1.6-4.2.2-1.8.9-3.3 2-4.4z"/><path class="st0" d="M37.8 17.8c-2.4 2.3-3.8 5.4-3.9 8.7-.1 3.3 1.1 6.5 3.4 8.9.2.2.5.4.8.4.3 0 .6-.1.8-.3.5-.4.5-1.2 0-1.6-1.9-2-2.8-4.6-2.8-7.3.1-2.7 1.2-5.2 3.2-7.1.5-.4.5-1.2 0-1.6-.3-.6-1.1-.6-1.5-.1z"/><path class="st0" d="M34.2 38.7c.3 0 .6-.1.8-.3.5-.4.5-1.2 0-1.6-5.4-5.8-5.2-14.8.6-20.3.5-.4.5-1.2 0-1.6-.4-.5-1.2-.5-1.6 0-3.2 3.1-5.1 7.2-5.2 11.6-.1 4.5 1.5 8.7 4.5 11.9.3.2.6.3.9.3z"/></svg>