<svg version="1.1" id="Layer_1" xmlns="http://www.w3.org/2000/svg" x="0" y="0" viewBox="0 0 100 80" xml:space="preserve"><style>.st0{fill:#fff}.st1{fill:#434b5c}.st2{fill:#e53928}</style><path class="st0" d="M42.5 32L25.4 42.2v13.2l19.8-12.3z"/><path class="st1" d="M24.5 57.1V41.6l18.6-11.1 3.1 13-21.7 13.6zm1.8-14.4v11.1l17.8-11.1-2.2-9.3-15.6 9.3z"/><path class="st0" d="M21.4 44.5v13.7l4.7 3.1 6.5-1.6V37.9z"/><path class="st1" d="M26 62.3l-5.4-3.6V43.9l13-7.7v24.1l-7.6 2zm-3.6-4.6l3.9 2.6 5.4-1.4V39.5L22.4 45v12.7z"/><path class="st0" d="M60.2 32l17.2 10.2v13.2L57.6 43.1z"/><path class="st1" d="M78.3 57.1L56.6 43.6l3.1-13 18.6 11.1v15.4zM58.6 42.7l17.8 11.1V42.7l-15.6-9.3-2.2 9.3z"/><path class="st0" d="M81.3 44.5v13.7l-4.7 3.1-6.5-1.6V37.9z"/><path class="st1" d="M76.8 62.3l-7.6-1.9V36.2l13 7.7v14.8l-5.4 3.6zm-5.7-3.4l5.4 1.4 3.9-2.6V45L71 39.5v19.4z"/><path class="st2" d="M62.7 50.2C61.4 32.8 59.1 21.8 53 7.8c-.3-.6-.8-1.2-1.4-1.2-.7 0-1.2.5-1.4 1.2-6.1 14-8.4 25-9.8 42.4"/><path d="M61.8 50.3c-1.4-18-3.8-28.6-9.7-42.1-.1-.2-.3-.6-.6-.6s-.5.4-.6.6c-5.9 13.5-8.3 24.1-9.7 42.1l-1.8-.1c1.4-18.2 3.9-29 9.8-42.7.5-1.1 1.3-1.7 2.3-1.7 1 0 1.8.6 2.3 1.7 6 13.7 8.5 24.5 9.8 42.7l-1.8.1z" fill="#42566a"/><path class="st0" d="M51.5 52.9c-6.2 0-11.2-1.2-11.2-2.7 0-1.5 5-2.7 11.2-2.7s11.2 1.2 11.2 2.7c0 1.5-5 2.7-11.2 2.7z"/><path class="st1" d="M51.5 53.8c-1.2 0-12.1-.1-12.1-3.6s10.9-3.6 12.1-3.6 12.1.1 12.1 3.6c.1 3.5-10.8 3.6-12.1 3.6zm-10.2-3.6c.6.7 4.3 1.8 10.3 1.8s9.6-1.1 10.3-1.8c-.6-.7-4.3-1.8-10.3-1.8s-9.7 1.1-10.3 1.8z"/><path d="M51.5 51.4c-4.4 0-7.5-.6-9-1.1 1.5-.5 4.5-1.1 9-1.1 4.4 0 7.5.6 9 1.1-1.5.5-4.6 1.1-9 1.1z" fill="#c1dbf2"/><path class="st2" d="M51.5 77.4c-4.9-10.1-11.3-27.8 0-27.8 12.4 0 3.8 20 0 27.8z"/><path class="st0" d="M51.5 69.3c-3.4-8.8-3.5-13.8-2.4-15.5.2-.3.6-.9 2.4-.9 2 0 2.4.7 2.6 1 1.1 1.7.9 6.6-2.6 15.4zM55.3 28c0 2.2-1.8 3.9-3.9 3.9-2.2 0-3.9-1.8-3.9-3.9s1.8-3.9 3.9-3.9c2.2 0 3.9 1.8 3.9 3.9z"/></svg>