<svg xmlns="http://www.w3.org/2000/svg" viewBox="0 0 100 80"><path d="M42 57.5c-2-3.5-3.2-8.3-3.5-14.4-1.7 1.3-4.5 4.1-4.6 7.8-.1 5.3 2.6 13.5 2.6 13.5l5.9-1.8s-.5-2.5-.4-5.1zm18.9 0c0 2.5-.4 5.1-.4 5.1l5.9 1.8s2.7-8.2 2.5-13.5c-.1-3.7-2.9-6.5-4.7-7.8-.2 6.1-1.3 10.9-3.3 14.4zM40.7 40.4c0 8.6 1.7 14.3 4.3 17.5 1.5-1.4 3.8-2.2 6.4-2.2 2.6 0 4.9.9 6.4 2.2C60.4 54.7 62 49 62 40.3c0-14.6-10.8-32-10.8-32S40.7 25.8 40.7 40.4zm10.7-1c-3 0-5.4-2.4-5.4-5.3 0-3 2.4-5.3 5.3-5.4 3 0 5.4 2.4 5.4 5.3 0 3-2.4 5.4-5.3 5.4zM55 58.7c-.2 4.2-3.5 7.5-3.5 7.5s-3.3-3.3-3.5-7.5c-.6.3-1 .6-1.5.9l-1.1 1v1c0 7.5 6.1 13.6 6.1 13.6s6-6.1 6-13.7v-1l-1.2-1c-.3-.2-.8-.5-1.3-.8z" fill="#fff"/><path d="M56.2 63.5v.5c-.1 5.7-4.7 10.4-4.7 10.4s-4.5-4.5-4.3-10.1v-.2c1.8 4 4.4 6.7 4.4 6.7s2.8-3.1 4.6-7.3z" fill="#da1a32"/></svg>