<svg xmlns="http://www.w3.org/2000/svg" viewBox="0 0 31.3 26.1"><path d="M17 9.3c-2.1-.2-3.9 1.4-4 3.5-.2 2.1 1.4 3.9 3.5 4h.3c1.9 0 3.6-1.5 3.7-3.5.1-2-1.5-3.8-3.5-4zm-.5 6.9c-1.7-.2-3-1.6-2.9-3.4.2-1.6 1.5-2.9 3.2-2.9h.2c1.7.2 3 1.6 2.9 3.4-.2 1.7-1.6 3.1-3.4 2.9zm9.3-4.3c.1-.1.2-.2.1-.3l-.7-2.2c0-.2-.2-.2-.3-.2l-2-.2-1-1.2.3-1.9c0-.2-.1-.2-.2-.3l-1.9-1.1c-.1-.1-.2-.1-.3.1l-1.4 1.3-1.6-.2-1.2-1.5c-.1-.1-.2-.2-.3-.1l-2.3.5c-.2 0-.2.2-.2.3l-.1 1.9-1.2 1-1.9-.2c-.2-.1-.3 0-.3.2l-1.2 2c-.1 0-.1.2.1.2l1.3 1.4-.2 1.7-1.5 1.2c-.1.1-.2.2-.1.3l.7 2.2c0 .2.2.2.3.2l1.9.1 1 1.2-.3 1.9c0 .2.1.2.2.3l2 1.1c.1.1.2.1.3-.1l1.4-1.3 1.6.2 1.2 1.5.2.2h.1l2.2-.7c.2 0 .2-.2.2-.3l.1-1.9 1.2-1 1.9.3c.2 0 .2-.1.3-.2l1.1-2c.1-.1.1-.2-.1-.3L24 14.7l.2-1.6 1.6-1.2zM23.4 15l1.2 1.4-.9 1.7-1.9-.3c-.1 0-.2 0-.2.1L20.2 19c-.1.1-.1.2-.1.2l-.1 1.9-1.9.5-1.1-1.5c-.1-.1-.2-.1-.2-.2l-1.8-.1h0c-.1 0-.2 0-.2.1l-1.4 1.2-1.7-.9.3-1.9c0-.1 0-.2-.1-.2l-1.1-1.5c-.1-.1-.2-.1-.2-.1l-1.9-.1-.5-1.9 1.5-1.1c.1-.1.1-.2.2-.2l.2-1.9c0-.1 0-.2-.1-.2L8.7 9.8l.9-1.6 1.9.3c.1 0 .2 0 .2-.1l1.4-1.2c.1-.1.1-.2.1-.2l.1-1.9 1.9-.5 1 1.4c.1.1.2.1.2.2l1.9.2c.1 0 .2 0 .2-.1L20 5.1l1.7.9-.3 1.9c0 .1 0 .2.1.2l1.2 1.5c.1.1.2.1.2.1l1.9.1.5 1.9-1.5 1.1c-.1.1-.1.2-.2.2l-.2 1.9v.1z" fill="#1ea5db" stroke="#1ea5db" stroke-width=".35" stroke-miterlimit="10"/></svg>