<svg xmlns="http://www.w3.org/2000/svg" viewBox="0 0 100 80"><path d="M41.2 29.8c0 4.8-5.3 8.6-11.9 8.6-.6 0-1.2 0-1.7-.1-1.1-.1-6.9 4.7-6.9 4.7s2.3-5.9 1.7-6.2c-3-1.6-5-4.1-5-7 0-4.8 5.3-8.6 11.9-8.6 6.6 0 11.9 3.8 11.9 8.6z" fill="#fff" stroke="#fff" stroke-width="3" stroke-miterlimit="10"/><path d="M34.3 38.7c0 9 10 16.2 22.4 16.2 1.1 0 2.2-.1 3.2-.2 2.2-.2 12.9 8.9 12.9 8.9s-4.3-11.2-3.2-11.7C75.3 49 79 44.1 79 38.6c0-9-10-16.2-22.4-16.2-12.3 0-22.3 7.3-22.3 16.3z" fill="#fff" stroke="#434c5c" stroke-width="3" stroke-miterlimit="10"/></svg>