apis-new.svg<?xml version="1.0" encoding="utf-8"?>
<!-- Generator: Adobe Illustrator 22.0.0, SVG Export Plug-In . SVG Version: 6.00 Build 0)  -->
<svg version="1.1" id="Layer_1" xmlns="http://www.w3.org/2000/svg" xmlns:xlink="http://www.w3.org/1999/xlink" x="0px" y="0px"
	 viewBox="0 0 31.3 26.1" style="enable-background:new 0 0 31.3 26.1;" xml:space="preserve">
<style type="text/css">
	.st0{fill:#CDB13B;}
</style>
<g>
	<path class="st0" d="M14.4,21.5l-1-0.1l2.7-18.3l1,0.1L14.4,21.5z M20.5,19.1l-0.7-0.7l5.5-6.1c0,0,0-0.2,0-0.3l-5.5-6l0.7-0.7
		l5.5,6.1c0.4,0.6,0.4,1.2,0,1.6L20.5,19.1z M10,19.1L4.5,13c-0.4-0.6-0.4-1.2,0-1.6L10,5.3L10.7,6l-5.5,6.1c0,0,0,0.2,0,0.3l5.5,6
		L10,19.1z"/>
</g>
</svg>
