<svg version="1.1" id="Layer_1" xmlns="http://www.w3.org/2000/svg" x="0" y="0" viewBox="0 0 100 80" xml:space="preserve"><style>.st0,.st1,.st2{fill:none;stroke:#44a5ab;stroke-width:2.8;stroke-miterlimit:10}.st1,.st2{stroke:#e63a29;stroke-width:2}.st2{stroke-width:1.5}</style><path class="st0" d="M34.6 51.7v-9.3c0-9.2 7.5-16.7 16.7-16.7S68 33.2 68 42.4v9.3m.1 1h2.6c1.1 0 2-.9 2-2v-5.3c0-1.1-.9-2-2-2h-2.6v9.3zm-33.5 0H32c-1.1 0-2-.9-2-2v-5.3c0-1.1.9-2 2-2h2.6v9.3z"/><path class="st0" d="M56 36.9c0 5.1-4.2 9.3-9.3 9.3h-8.4v9.3c0 7.2 5.8 13 13 13s13-5.8 13-13v-9.3c-4.6-.5-8.3-4.5-8.3-9.3z"/><path class="st0" d="M54.1 61h7.4c3.6 0 6.5-2.9 6.5-6.5v-1.9"/><circle class="st0" cx="51.3" cy="61" r="2.8"/><path class="st1" d="M7.8 13.3c0-1.2 1-2.2 2.3-2.2h18.8c1.2 0 2.2 1 2.2 2.2v13.5c0 1.2-1 2.2-2.2 2.2h-3v4.5H25L21.2 29H10c-1.2 0-2.3-1-2.3-2.2V13.3z"/><path class="st2" d="M11.5 17.1h15.8m-15.8 3h15.8m-15.8 3H22"/><path class="st1" d="M65.8 7.3c0-1.2 1-2.2 2.2-2.2h18.8c1.2 0 2.2 1 2.2 2.2v13.5c0 1.2-1 2.2-2.2 2.2h-3v4.5H83L79.2 23H68c-1.2 0-2.2-1-2.2-2.2V7.3z"/><path class="st2" d="M69.5 11.1h15.8m-15.8 3h15.8m-15.8 3H80"/></svg>