<svg xmlns="http://www.w3.org/2000/svg" viewBox="0 0 108 80"><path d="M37.5 20.2c-12.6 0-22.8 9-22.8 20 0 4.3 1.6 8.5 4.5 12l-3.3 9c-.2.7-.2 1.4.2 1.9.4.6 1 .9 1.7.9.3 0 .7-.1 1-.2l10-5c2.8 1 5.7 1.5 8.7 1.5 12.6 0 22.8-9 22.8-20S50 20.2 37.5 20.2zm0 38.6c-2.9 0-5.8-.5-8.4-1.5-.2-.1-.4-.1-.6 0l-10.2 5.2c-.3.2-.6 0-.8-.2-.1-.1-.2-.3-.1-.6l3.4-9.4c.1-.3 0-.5-.1-.7-2.9-3.3-4.4-7.2-4.4-11.3 0-10.2 9.6-18.6 21.3-18.6S58.8 30 58.8 40.3s-9.6 18.5-21.3 18.5z" fill="#44a5ab" stroke="#44a5ab" stroke-width="1.2" stroke-miterlimit="10"/><text transform="translate(24.193 44.275)" font-size="12" font-family="Roboto-Black" fill="#dc4126">SMS</text><path d="M82.7 33l7.1 7-7.2 7m5.8-7H64.9m8.7-28.1l9.7 2.5-2.8 9.7m1.6-9L61.6 27m12.1 41.1l9.7-2.5-2.8-9.7m1.6 9L61.5 53.5" fill="none" stroke="#44a5ab" stroke-width="2.2" stroke-linecap="round" stroke-linejoin="round" stroke-miterlimit="10"/></svg>