<svg version="1.1" id="Layer_1" xmlns="http://www.w3.org/2000/svg" x="0" y="0" viewBox="0 0 100 80" xml:space="preserve"><style>.st1{fill:none;stroke:#44a5ab;stroke-width:3;stroke-linecap:round;stroke-linejoin:round}.st2{fill:#44a5ab}</style><path d="M27.3 38.2c.1.2.1.4.1.6l-.5 5.9c0 .5-.4 1-.8 1.2l-2.9 1.3c-.1 0-.2.1-.2.3.1.9.8 3.3 2.1 6.3s2.8 5.1 3.3 5.7c.1.1.2.1.3 0l2.9-1.3c.5-.2 1-.2 1.4.2l4.8 3.5c.2.2.3.3.4.5h0c.2.4.1.7 0 1l-.5 1.4c-.1.1-.2.5-1.5 1.1-1.3.6-4 1.4-5.9.7-1.4-.5-6.2-2.8-9.9-10.9s-2.2-13.3-1.7-14.6c.7-1.8 3.1-3.3 4.4-3.9 1.3-.6 1.7-.5 1.9-.4l1.4.5c.4.3.7.5.9.9zM24 54.3c-1.4-3.1-2-5.6-2.2-6.6-.1-.6.2-1.2.8-1.5l2.9-1.3c.1 0 .1-.1.2-.2l.5-5.9c0-.1-.1-.2-.2-.2l-1.3-.6s-.4 0-1 .3c-1.5.7-3.4 2.1-3.8 3.3-.5 1.3-1.9 6 1.7 13.8s7.9 9.9 9.3 10.4c1.2.4 3.5 0 5-.7.7-.3.9-.5 1-.6l.6-1.4c0-.1 0-.2-.1-.3l-4.8-3.5c-.1-.1-.2-.1-.3-.1l-2.9 1.3c-.6.3-1.2.1-1.7-.4-.8-.6-2.3-2.8-3.7-5.8z" fill="#e63a29" stroke="#e63a29" stroke-miterlimit="10"/><path class="st1" d="M33.6 50l19.7-7.7"/><path class="st2" d="M34.7 52.5c-1.5.6-3.1-.2-3.6-1.6-.6-1.5.2-3.1 1.6-3.6 1.5-.6 3.1.2 3.6 1.6.6 1.4-.1 3.1-1.6 3.6z"/><path class="st1" d="M53.3 42.2L80.1 54"/><path class="st2" d="M78.8 56.5c1.4.6 3.1 0 3.7-1.4s0-3.1-1.4-3.7c-1.4-.6-3.1 0-3.7 1.4-.7 1.4 0 3.1 1.4 3.7z"/><path class="st1" d="M53.3 42.2l11.8-26.8"/><path class="st2" d="M67.7 16.7c.6-1.4 0-3.1-1.4-3.7s-3.1 0-3.7 1.4c-.6 1.4 0 3.1 1.4 3.7 1.4.6 3 0 3.7-1.4z"/><circle cx="53.2" cy="42.3" r="11.1" fill="#fff" stroke="#44a5ab" stroke-width="3" stroke-miterlimit="10"/></svg>