<svg version="1.1" id="Layer_1" xmlns="http://www.w3.org/2000/svg" x="0" y="0" viewBox="0 0 108 80" xml:space="preserve"><style>.st0{fill:#7b83eb}.st1,.st2{opacity:.1;enable-background:new}.st2{opacity:.2}.st3{fill:#5059c9}</style><circle class="st0" cx="53.8" cy="23.8" r="7.6"/><path class="st1" d="M53.2 25.4h-6.9v.3c1 3.9 5 6.3 9 5.5v-3.6c.1-1.3-.9-2.2-2.1-2.2z"/><path class="st2" d="M51.6 27h-4.7c1.3 2.6 3.9 4.3 6.9 4.3v-2.2c0-1.1-1-2.1-2.2-2.1z"/><circle class="st3" cx="70.8" cy="26.2" r="5.7"/><path class="st3" d="M75.7 33.5H62.9c-.6 0-1 .5-1 1v13.2c-.1 3.9 2.6 7.4 6.4 8.3 4.4.9 8.7-1.9 9.6-6.3.1-.5.2-1.1.2-1.7V35.9c0-1.3-1.1-2.4-2.4-2.4z"/><path class="st0" d="M66.8 35.9v15.4c0 7.2-5.8 13-13 13-4.6 0-8.9-2.5-11.3-6.5-.3-.5-.6-1.1-.8-1.6-.2-.5-.4-1.1-.5-1.6-.3-1.1-.4-2.2-.4-3.2V35.9c0-1.3 1.1-2.4 2.4-2.4h21.1c1.4 0 2.5 1.1 2.5 2.4z"/><path class="st2" d="M51.6 27h-4.7c1.3 2.6 3.9 4.3 6.9 4.3v-2.2c0-1.1-1-2.1-2.2-2.1z"/><path class="st1" d="M55.4 33.5v20.6c0 1-.7 1.9-1.7 2.1-.2 0-.3.1-.5.1H41.7c-.2-.5-.4-1.1-.5-1.6-.3-1.1-.4-2.2-.4-3.2V35.9c0-1.3 1.1-2.4 2.4-2.4h12.2z"/><path class="st2" d="M53.8 33.5v22.2c0 .2 0 .3-.1.5-.2 1-1.1 1.7-2.1 1.7h-9.1c-.3-.5-.6-1.1-.8-1.6-.2-.5-.4-1.1-.5-1.6-.3-1.1-.4-2.2-.4-3.2V35.9c0-1.3 1.1-2.4 2.4-2.4h10.6z"/><path class="st2" d="M53.8 33.5v19c0 1.2-1 2.2-2.2 2.2H41.2c-.3-1.1-.4-2.2-.4-3.2V35.9c0-1.3 1.1-2.4 2.4-2.4h10.6z"/><path class="st2" d="M43.2 33.5c-1.3 0-2.4 1.1-2.4 2.4v15.4c0 1.1.1 2.2.4 3.2H50c1.2 0 2.2-1 2.2-2.2v-19h-9z"/><path d="M28.3 27H50c1.2 0 2.2 1 2.2 2.2v21.7c0 1.2-1 2.2-2.2 2.2H28.3c-1.2 0-2.2-1-2.2-2.2V29.2c0-1.2 1-2.2 2.2-2.2z" fill="#4b53bc"/><path d="M45.6 35.1h-4.9v13h-3.2v-13h-4.9v-3.2h12.9v3.2z" fill="#fff"/><path d="M26.1 14h52v52h-52V14z" fill="none"/></svg>