<svg xmlns="http://www.w3.org/2000/svg" viewBox="0 0 935 192.5"><path d="M45.4 170.2c-.7 5.8-2.8 10.3-6.4 13.4-3.6 3.2-8.4 4.7-14.4 4.7-6.5 0-11.7-2.3-15.6-7-3.9-4.6-5.9-10.9-5.9-18.6v-5.3c0-5.1.9-9.6 2.7-13.4s4.4-6.8 7.7-8.9c3.3-2.1 7.2-3.1 11.6-3.1 5.8 0 10.5 1.6 14 4.9 3.5 3.3 5.6 7.8 6.1 13.5h-7.3c-.6-4.4-2-7.6-4.1-9.5-2.1-2-5-2.9-8.8-2.9-4.6 0-8.2 1.7-10.9 5.1-2.6 3.4-3.9 8.3-3.9 14.6v5.3c0 6 1.2 10.7 3.7 14.2s6 5.3 10.4 5.3c4 0 7.1-.9 9.2-2.7 2.1-1.8 3.6-5 4.3-9.5h7.6zm17.1-4.1v21.5h-7.2v-54.8h20.2c6 0 10.7 1.5 14.1 4.6 3.4 3.1 5.1 7.1 5.1 12.2 0 5.3-1.7 9.4-5 12.3-3.3 2.9-8.1 4.3-14.3 4.3H62.5zm0-5.9h13c3.9 0 6.8-.9 8.9-2.7 2.1-1.8 3.1-4.5 3.1-7.9 0-3.3-1-5.9-3.1-7.8-2.1-2-4.9-3-8.5-3.1H62.5v21.5zm65.1 27.4c-.4-.8-.7-2.2-1-4.3-3.2 3.4-7.1 5-11.6 5-4 0-7.3-1.1-9.9-3.4-2.6-2.3-3.9-5.2-3.9-8.6 0-4.2 1.6-7.5 4.8-9.9 3.2-2.3 7.8-3.5 13.6-3.5h6.8v-3.2c0-2.4-.7-4.4-2.2-5.8-1.5-1.4-3.6-2.2-6.4-2.2-2.5 0-4.6.6-6.3 1.9-1.7 1.3-2.5 2.8-2.5 4.6h-7c0-2 .7-4 2.2-5.9 1.4-1.9 3.4-3.4 5.9-4.5 2.5-1.1 5.2-1.7 8.2-1.7 4.7 0 8.4 1.2 11 3.5 2.7 2.3 4 5.6 4.1 9.7v18.8c0 3.7.5 6.7 1.4 8.9v.6h-7.2zm-11.5-5.3c2.2 0 4.3-.6 6.2-1.7 2-1.1 3.4-2.6 4.3-4.4v-8.4h-5.5c-8.5 0-12.8 2.5-12.8 7.5 0 2.2.7 3.9 2.2 5.1 1.4 1.3 3.3 1.9 5.6 1.9zm53.5 5.3c-.4-.8-.7-2.2-1-4.3-3.2 3.4-7.1 5-11.6 5-4 0-7.3-1.1-9.9-3.4-2.6-2.3-3.9-5.2-3.9-8.6 0-4.2 1.6-7.5 4.8-9.9 3.2-2.3 7.8-3.5 13.6-3.5h6.8v-3.2c0-2.4-.7-4.4-2.2-5.8-1.5-1.4-3.6-2.2-6.4-2.2-2.5 0-4.6.6-6.3 1.9-1.7 1.3-2.5 2.8-2.5 4.6h-7c0-2 .7-4 2.2-5.9 1.4-1.9 3.4-3.4 5.9-4.5 2.5-1.1 5.2-1.7 8.2-1.7 4.7 0 8.4 1.2 11 3.5 2.7 2.3 4 5.6 4.1 9.7v18.8c0 3.7.5 6.7 1.4 8.9v.6h-7.2zm-11.6-5.3c2.2 0 4.3-.6 6.2-1.7 2-1.1 3.4-2.6 4.3-4.4v-8.4H163c-8.5 0-12.8 2.5-12.8 7.5 0 2.2.7 3.9 2.2 5.1 1.5 1.3 3.3 1.9 5.6 1.9zm45.6-19.2c-6.2-1.8-10.7-4-13.5-6.6-2.8-2.6-4.2-5.8-4.2-9.6 0-4.3 1.7-7.9 5.2-10.7 3.5-2.8 7.9-4.2 13.5-4.2 3.8 0 7.1.7 10.1 2.2 3 1.5 5.2 3.5 6.9 6 1.6 2.6 2.4 5.4 2.4 8.4h-7.3c0-3.3-1.1-5.9-3.2-7.8s-5.1-2.9-8.9-2.9c-3.6 0-6.3.8-8.3 2.4-2 1.6-3 3.8-3 6.5 0 2.2.9 4.1 2.8 5.7 1.9 1.5 5.1 3 9.7 4.2 4.6 1.3 8.1 2.7 10.7 4.2 2.6 1.5 4.5 3.3 5.7 5.4 1.2 2.1 1.9 4.5 1.9 7.3 0 4.4-1.7 8-5.2 10.7-3.5 2.7-8.1 4-13.9 4-3.8 0-7.3-.7-10.5-2.2-3.3-1.4-5.8-3.4-7.6-5.9-1.8-2.5-2.7-5.4-2.7-8.6h7.3c0 3.3 1.2 5.9 3.7 7.9 2.4 1.9 5.7 2.9 9.8 2.9 3.8 0 6.7-.8 8.8-2.3 2-1.6 3.1-3.7 3.1-6.4s-.9-4.8-2.8-6.2c-2.1-1.5-5.5-2.9-10.5-4.4zm79.8-.9h-23.8v19.4h27.6v5.9h-34.8v-54.8h34.5v5.9h-27.2v17.7h23.8v5.9zm18.3-15.4l.2 5.1c3.1-3.9 7.2-5.9 12.2-5.9 8.6 0 13 4.9 13 14.6v26.9h-7v-27c0-2.9-.7-5.1-2-6.5-1.3-1.4-3.4-2.1-6.2-2.1-2.3 0-4.2.6-6 1.8-1.7 1.2-3 2.8-4 4.7v29h-7v-40.8h6.8zm61.1 40.8c-.4-.8-.7-2.2-1-4.3-3.2 3.4-7.1 5-11.6 5-4 0-7.3-1.1-9.9-3.4-2.6-2.3-3.9-5.2-3.9-8.6 0-4.2 1.6-7.5 4.8-9.9 3.2-2.3 7.8-3.5 13.6-3.5h6.8v-3.2c0-2.4-.7-4.4-2.2-5.8-1.5-1.4-3.6-2.2-6.4-2.2-2.5 0-4.6.6-6.3 1.9-1.7 1.3-2.5 2.8-2.5 4.6h-7c0-2 .7-4 2.2-5.9 1.4-1.9 3.4-3.4 5.9-4.5 2.5-1.1 5.2-1.7 8.2-1.7 4.7 0 8.4 1.2 11 3.5 2.7 2.3 4 5.6 4.1 9.7v18.8c0 3.7.5 6.7 1.4 8.9v.6h-7.2zm-11.5-5.3c2.2 0 4.3-.6 6.2-1.7 2-1.1 3.4-2.6 4.3-4.4v-8.4h-5.5c-8.5 0-12.8 2.5-12.8 7.5 0 2.2.7 3.9 2.2 5.1 1.4 1.3 3.3 1.9 5.6 1.9zm62.8-14.6c0 6.2-1.4 11.2-4.3 15-2.9 3.8-6.7 5.7-11.5 5.7-5.1 0-9.1-1.8-11.9-5.5l-.3 4.7h-6.4v-57.9h7v21.6c2.8-3.5 6.7-5.2 11.6-5.2 4.9 0 8.8 1.9 11.7 5.6 2.8 3.7 4.2 8.9 4.2 15.4v.6zm-6.9-.8c0-4.7-.9-8.4-2.7-11-1.8-2.6-4.5-3.9-7.9-3.9-4.6 0-7.9 2.1-9.9 6.4V176c2.1 4.3 5.5 6.4 10 6.4 3.3 0 5.9-1.3 7.8-3.9 1.7-2.5 2.7-6.4 2.7-11.6zm23.3 20.7h-7v-57.9h7v57.9zm28 .7c-5.5 0-10-1.8-13.5-5.4-3.5-3.6-5.2-8.5-5.2-14.6V167c0-4 .8-7.7 2.3-10.8 1.5-3.2 3.7-5.7 6.5-7.5 2.8-1.8 5.8-2.7 9-2.7 5.3 0 9.4 1.7 12.4 5.2 2.9 3.5 4.4 8.5 4.4 15v2.9h-27.6c.1 4 1.3 7.3 3.5 9.7 2.2 2.5 5.1 3.7 8.6 3.7 2.5 0 4.5-.5 6.3-1.5 1.7-1 3.2-2.3 4.5-4l4.3 3.3c-3.5 5.4-8.6 8-15.5 8zm-.8-36.5c-2.8 0-5.2 1-7.1 3.1-1.9 2-3.1 4.9-3.5 8.6h20.4v-.5c-.2-3.5-1.2-6.3-2.9-8.2-1.7-2-4-3-6.9-3zm31.4-5l.2 4.5c3-3.5 7-5.3 12.1-5.3 5.7 0 9.6 2.2 11.6 6.6 1.4-2 3.1-3.5 5.3-4.7 2.2-1.2 4.7-1.8 7.7-1.8 8.9 0 13.5 4.7 13.6 14.2v27.3h-7v-26.9c0-2.9-.7-5.1-2-6.5-1.3-1.4-3.6-2.2-6.7-2.2-2.6 0-4.7.8-6.4 2.3-1.7 1.5-2.7 3.6-3 6.2v27h-7v-26.7c0-5.9-2.9-8.9-8.7-8.9-4.6 0-7.7 1.9-9.4 5.8v29.8h-7v-40.8h6.7zm77.9 41.5c-5.5 0-10-1.8-13.5-5.4-3.5-3.6-5.2-8.5-5.2-14.6V167c0-4 .8-7.7 2.3-10.8 1.5-3.2 3.7-5.7 6.5-7.5 2.8-1.8 5.8-2.7 9-2.7 5.3 0 9.4 1.7 12.4 5.2 2.9 3.5 4.4 8.5 4.4 15v2.9h-27.6c.1 4 1.3 7.3 3.5 9.7 2.2 2.5 5.1 3.7 8.6 3.7 2.5 0 4.5-.5 6.3-1.5 1.7-1 3.2-2.3 4.5-4l4.3 3.3c-3.5 5.4-8.6 8-15.5 8zm-.8-36.5c-2.8 0-5.2 1-7.1 3.1-1.9 2-3.1 4.9-3.5 8.6H576v-.5c-.2-3.5-1.2-6.3-2.9-8.2-1.7-2-4-3-6.9-3zm31.4-5l.2 5.1c3.1-3.9 7.2-5.9 12.2-5.9 8.6 0 13 4.9 13 14.6v26.9h-7v-27c0-2.9-.7-5.1-2-6.5-1.3-1.4-3.4-2.1-6.2-2.1-2.3 0-4.2.6-6 1.8-1.7 1.2-3 2.8-4 4.7v29h-7v-40.8h6.8zM643 137v9.9h7.6v5.4H643v25.3c0 1.6.3 2.9 1 3.7.7.8 1.8 1.2 3.5 1.2.8 0 1.9-.2 3.3-.5v5.6c-1.8.5-3.6.7-5.3.7-3.1 0-5.5-.9-7-2.8-1.6-1.9-2.4-4.6-2.4-8v-25.3h-7.4v-5.4h7.4V137h6.9zM3.9 11.8c0-2.1 0-3.7.1-4.9.1-1.1.4-1.9 1-2.5.5-.5 1.4-.8 2.5-.9 1.1-.1 2.8-.1 4.9-.1h41.1c6.5 0 11.5.1 15.1.4s6.1 1.2 7.8 2.7C78 8 79 10.4 79.3 13.7c.3 3.2.5 7.9.5 13.9s-.2 10.7-.5 13.9c-.3 3.2-1.3 5.6-2.9 7.2-1.6 1.5-4.2 2.4-7.8 2.7s-8.6.4-15.1.4l24.6 24.6 2.6 2.6c.6.6.9 1.2.9 1.8 0 .4-.3 1.1-1 1.9-.7.8-1.4 1.7-2.4 2.6-.9.9-1.8 1.6-2.7 2.3-.9.7-1.5 1-1.8 1-.5 0-1.1-.3-1.8-.9-.7-.6-1.5-1.4-2.6-2.4L35.7 51.8H16.5v29.5c0 1.6 0 2.8-.1 3.6-.1.8-.3 1.4-.7 1.8-.4.4-1 .6-1.8.7-.8.1-2 .1-3.6.1s-2.8 0-3.6-.1c-.8-.1-1.4-.3-1.8-.7-.4-.4-.6-1-.7-1.8-.1-.8-.1-2-.1-3.6V11.8zm49.5 27.4c3.4 0 6.1-.1 7.9-.2 1.8-.1 3.2-.6 4-1.3.8-.7 1.3-1.9 1.5-3.4.2-1.5.3-3.8.3-6.6 0-2.9-.1-5.1-.3-6.6-.2-1.5-.7-2.7-1.5-3.4-.8-.7-2.2-1.2-4-1.3-1.8-.1-4.5-.2-7.9-.2H16.5v23.2h36.9zM147.1 75c1.6 0 2.8 0 3.6.1.8.1 1.4.3 1.8.7.4.4.6 1 .7 1.8.1.8.1 2 .1 3.6s0 2.8-.1 3.6c-.1.8-.3 1.4-.7 1.8-.4.4-1 .6-1.8.7-.8.1-2 .1-3.6.1h-23.2c-5.6 0-10.3-.1-14.1-.2-3.8-.1-7-.5-9.5-1.1-2.5-.6-4.4-1.6-5.8-3-1.4-1.4-2.3-3.3-3-5.8-.6-2.5-1-5.7-1.1-9.5-.1-3.8-.2-8.5-.2-14.1s.1-10.3.2-14.1c.1-3.8.5-7 1.1-9.5.6-2.5 1.6-4.4 3-5.8 1.4-1.4 3.3-2.3 5.8-3 2.5-.6 5.7-1 9.5-1.1 3.8-.1 8.5-.2 14.1-.2s10.3.1 14.1.2c3.8.1 7 .5 9.5 1.1 2.5.6 4.4 1.6 5.8 2.9 1.4 1.3 2.3 3.1 3 5.5.6 2.3 1 5.3 1.1 8.8.1 3.6.2 7.9.2 13.1 0 2.1 0 3.7-.1 4.9-.1 1.1-.4 2-.9 2.5s-1.4.8-2.5.9c-1.1.1-2.8.1-4.9.1h-46.3c0 3.7.1 6.5.3 8.5.2 2 .7 3.4 1.6 4.3.9.9 2.4 1.5 4.3 1.6 2 .2 4.8.3 8.5.3h29.5zM145 47.6c0-3.7-.1-6.5-.3-8.5-.2-2-.7-3.4-1.6-4.3-.9-.9-2.4-1.5-4.3-1.6-2-.2-4.8-.3-8.5-.3h-12.6c-3.7 0-6.5.1-8.5.3-2 .2-3.4.7-4.3 1.6-.9.9-1.5 2.4-1.6 4.3-.2 2-.3 4.8-.3 8.5h42zM211.3 75c1.8 0 3.2 0 4.2-.1s1.7-.4 2.2-.9c.5-.5.8-1.2.9-2.2.1-1 .1-2.4.1-4.2s0-3.2-.1-4.2-.4-1.7-.9-2.2c-.5-.5-1.2-.8-2.2-.9-1-.1-2.4-.1-4.2-.1h-23.2c-5 0-8.8-.1-11.5-.3-2.7-.2-4.7-1-5.9-2.2-1.3-1.3-2-3.2-2.2-5.9-.2-2.7-.3-6.5-.3-11.5s.1-8.8.3-11.5c.2-2.7 1-4.6 2.2-5.9 1.3-1.3 3.2-2 5.9-2.2 2.7-.2 6.5-.3 11.5-.3h34.7c1.6 0 2.8 0 3.6.1.8.1 1.4.3 1.8.7.4.4.6 1 .7 1.8.1.8.1 2 .1 3.6s0 2.8-.1 3.6c-.1.8-.3 1.4-.7 1.8-.4.4-1 .6-1.8.7-.8.1-2 .1-3.6.1h-34.7c-1.8 0-3.2 0-4.2.1s-1.7.4-2.2.9c-.5.5-.8 1.2-.9 2.2-.1 1-.1 2.4-.1 4.2 0 1.8 0 3.2.1 4.2s.4 1.7.9 2.2c.5.5 1.2.8 2.2.9 1 .1 2.4.1 4.2.1h23.2c5 0 8.8.1 11.5.3 2.7.2 4.6 1 5.9 2.2 1.3 1.3 2 3.2 2.2 5.9.2 2.7.3 6.5.3 11.5s-.1 8.8-.3 11.5c-.2 2.7-1 4.7-2.2 5.9-1.3 1.3-3.2 2-5.9 2.2-2.7.2-6.5.3-11.5.3h-36.8c-1.6 0-2.8 0-3.6-.1-.8-.1-1.4-.3-1.8-.7-.4-.4-.6-1-.7-1.8-.1-.8-.1-2-.1-3.6s0-2.8.1-3.6c.1-.8.3-1.4.7-1.8.4-.4 1-.6 1.8-.7.8-.1 2-.1 3.6-.1h36.8zm45.2-42.2h-12.6c-1.6 0-2.8 0-3.6-.1-.8-.1-1.4-.3-1.8-.7-.4-.4-.6-1-.7-1.8-.1-.8-.1-2-.1-3.6s0-2.8.1-3.6c.1-.8.3-1.4.7-1.8.4-.4 1-.6 1.8-.7.8-.1 2-.1 3.6-.1h12.6V9.7c0-1.6 0-2.8.1-3.6.1-.8.3-1.4.7-1.8.4-.4 1-.6 1.8-.7.8-.1 2-.1 3.6-.1s2.8 0 3.6.1c.8.1 1.4.3 1.8.7.4.4.6 1 .7 1.8.1.8.1 2 .1 3.6v10.5h12.6c1.6 0 2.8 0 3.6.1.8.1 1.4.3 1.8.7.4.4.6 1 .7 1.8.1.8.1 2 .1 3.6s0 2.8-.1 3.6c-.1.8-.3 1.4-.7 1.8-.4.4-1 .6-1.8.7-.8.1-2 .1-3.6.1h-12.6V81c0 1.6 0 2.8-.1 3.6-.1.8-.3 1.4-.7 1.8-.4.4-1 .6-1.8.7-.8.1-2 .1-3.6.1s-2.8 0-3.6-.1c-.8-.1-1.4-.3-1.8-.7-.4-.4-.6-1-.7-1.8-.1-.8-.1-2-.1-3.6V32.8zM349.2 75c1.6 0 2.8 0 3.6.1.8.1 1.4.3 1.8.7.4.4.6 1 .7 1.8.1.8.1 2 .1 3.6s0 2.8-.1 3.6c-.1.8-.3 1.4-.7 1.8-.4.4-1 .6-1.8.7-.8.1-2 .1-3.6.1h-18.9c-5.6 0-10.3-.1-14.1-.2-3.8-.1-7-.5-9.5-1.1-2.5-.6-4.4-1.6-5.8-3-1.4-1.4-2.3-3.3-3-5.8-.6-2.5-1-5.7-1.1-9.5-.1-3.8-.2-8.5-.2-14.1s.1-10.3.2-14.1c.1-3.8.5-7 1.1-9.5.6-2.5 1.6-4.4 3-5.8 1.4-1.4 3.3-2.3 5.8-3 2.5-.6 5.7-1 9.5-1.1 3.8-.1 8.5-.2 14.1-.2h18.9c1.6 0 2.8 0 3.6.1.8.1 1.4.3 1.8.7.4.4.6 1 .7 1.8.1.8.1 2 .1 3.6s0 2.8-.1 3.6c-.1.8-.3 1.4-.7 1.8-.4.4-1 .6-1.8.7-.8.1-2 .1-3.6.1h-18.9c-5.3 0-9.3.1-12.2.3-2.9.2-4.9 1-6.2 2.3-1.3 1.3-2.1 3.4-2.3 6.2-.2 2.9-.3 6.9-.3 12.2s.1 9.3.3 12.2c.2 2.9 1 4.9 2.3 6.2s3.4 2.1 6.2 2.3c2.8.2 6.9.3 12.2.3h18.9zm50.5-54.8c5.6 0 10.3.1 14.1.2 3.8.1 7 .5 9.5 1.1 2.5.6 4.4 1.6 5.8 3 1.4 1.4 2.3 3.3 3 5.8.6 2.5 1 5.7 1.1 9.5.1 3.8.2 8.5.2 14.1s-.1 10.3-.2 14.1c-.1 3.8-.5 7-1.1 9.5-.6 2.5-1.6 4.4-3 5.8-1.4 1.4-3.3 2.3-5.8 3-2.5.6-5.7 1-9.5 1.1-3.8.1-8.5.2-14.1.2s-10.3-.1-14.1-.2c-3.8-.1-7-.5-9.5-1.1-2.5-.6-4.4-1.6-5.8-3-1.4-1.4-2.3-3.3-3-5.8-.6-2.5-1-5.7-1.1-9.5-.1-3.8-.2-8.5-.2-14.1s.1-10.3.2-14.1c.1-3.8.5-7 1.1-9.5.6-2.5 1.6-4.4 3-5.8 1.4-1.4 3.3-2.3 5.8-3 2.5-.6 5.7-1 9.5-1.1 3.8-.1 8.5-.2 14.1-.2zm21 33.7c0-5.3-.1-9.3-.3-12.2-.2-2.8-1-4.9-2.3-6.2-1.3-1.3-3.4-2.1-6.2-2.3-2.9-.2-6.9-.3-12.2-.3-5.3 0-9.3.1-12.2.3-2.9.2-4.9 1-6.2 2.3-1.3 1.3-2.1 3.4-2.3 6.2-.2 2.9-.3 6.9-.3 12.2s.1 9.3.3 12.2c.2 2.9 1 4.9 2.3 6.2s3.4 2.1 6.2 2.3c2.8.2 6.9.3 12.2.3 5.3 0 9.3-.1 12.2-.3 2.8-.2 4.9-1 6.2-2.3 1.3-1.3 2.1-3.4 2.3-6.2.2-2.9.3-6.9.3-12.2zm23.7-25.3c0-2.1 0-3.7.1-4.9.1-1.1.4-2 .9-2.5s1.4-.8 2.5-.9c1.1-.1 2.8-.1 4.9-.1h58.9c4.9 0 9 0 12.4.1 3.3.1 6.1.4 8.3 1 2.2.6 3.9 1.4 5.1 2.6 1.2 1.2 2.1 2.9 2.6 5.1.6 2.2.9 5 1 8.4.1 3.4.1 7.5.1 12.3v31.6c0 1.6 0 2.8-.1 3.6-.1.8-.3 1.4-.7 1.8-.4.4-1 .6-1.8.7-.8.1-2 .1-3.6.1s-2.8 0-3.6-.1c-.8-.1-1.4-.3-1.8-.7-.4-.4-.6-1-.7-1.8-.1-.8-.1-2-.1-3.6V49.7c0-4.2-.1-7.5-.3-9.7-.2-2.3-.8-3.9-1.8-5-1.1-1.1-2.7-1.7-5-1.8-2.3-.2-5.5-.3-9.7-.3h-12.6v48.4c0 1.6 0 2.8-.1 3.6-.1.8-.3 1.4-.7 1.8-.4.4-1 .6-1.8.7-.8.1-2 .1-3.6.1s-2.8 0-3.6-.1c-.8-.1-1.4-.3-1.8-.7-.4-.4-.6-1-.7-1.8-.1-.8-.1-2-.1-3.6V32.8h-29.5v48.4c0 1.6 0 2.8-.1 3.6-.1.8-.3 1.4-.7 1.8-.4.4-1 .6-1.8.7-.8.1-2 .1-3.6.1s-2.8 0-3.6-.1c-.8-.1-1.4-.3-1.8-.7-.4-.4-.6-1-.7-1.8-.1-.8-.1-2-.1-3.6V28.6zm107.9 0c0-2.1 0-3.7.1-4.9.1-1.1.4-2 .9-2.5s1.4-.8 2.5-.9c1.1-.1 2.8-.1 4.9-.1h58.9c4.9 0 9 0 12.4.1 3.3.1 6.1.4 8.3 1 2.2.6 3.9 1.4 5.1 2.6 1.2 1.2 2.1 2.9 2.6 5.1.6 2.2.9 5 1 8.4.1 3.4.1 7.5.1 12.3v31.6c0 1.6 0 2.8-.1 3.6-.1.8-.3 1.4-.7 1.8-.4.4-1 .6-1.8.7-.8.1-2 .1-3.6.1s-2.8 0-3.6-.1c-.8-.1-1.4-.3-1.8-.7-.4-.4-.6-1-.7-1.8-.1-.8-.1-2-.1-3.6V49.7c0-4.2-.1-7.5-.3-9.7-.2-2.3-.8-3.9-1.8-5-1.1-1.1-2.7-1.7-5-1.8-2.3-.2-5.5-.3-9.7-.3h-12.6v48.4c0 1.6 0 2.8-.1 3.6-.1.8-.3 1.4-.7 1.8-.4.4-1 .6-1.8.7-.8.1-2 .1-3.6.1s-2.8 0-3.6-.1c-.8-.1-1.4-.3-1.8-.7-.4-.4-.6-1-.7-1.8-.1-.8-.1-2-.1-3.6V32.8H565v48.4c0 1.6 0 2.8-.1 3.6-.1.8-.3 1.4-.7 1.8-.4.4-1 .6-1.8.7-.8.1-2 .1-3.6.1s-2.8 0-3.6-.1c-.8-.1-1.4-.3-1.8-.7-.4-.4-.6-1-.7-1.8-.1-.8-.1-2-.1-3.6V28.6zm186.1 59v-64h18.1c5.6 0 10.5 1.2 14.8 3.7s7.6 6 9.9 10.5c2.3 4.5 3.5 9.8 3.5 15.6v4.1c0 6-1.2 11.3-3.5 15.9-2.3 4.5-5.7 8-10 10.5-4.3 2.4-9.4 3.7-15.1 3.7h-17.7zm8.5-57.1v50.2h8.9c6.5 0 11.6-2 15.2-6.1s5.4-9.8 5.4-17.3v-3.7c0-7.3-1.7-12.9-5.1-17-3.4-4-8.3-6.1-14.5-6.1h-9.9zM794 63.4c0-4.7.9-8.8 2.7-12.6 1.8-3.7 4.4-6.6 7.6-8.6 3.3-2 7-3 11.2-3 6.5 0 11.7 2.2 15.7 6.7s6 10.4 6 17.9v.6c0 4.6-.9 8.8-2.7 12.5-1.8 3.7-4.3 6.5-7.6 8.6-3.3 2.1-7.1 3.1-11.4 3.1-6.4 0-11.7-2.2-15.7-6.7s-6-10.4-6-17.8v-.7zm8.2.9c0 5.3 1.2 9.5 3.7 12.7 2.4 3.2 5.7 4.8 9.8 4.8 4.1 0 7.4-1.6 9.8-4.9 2.4-3.2 3.6-7.8 3.6-13.6 0-5.2-1.2-9.4-3.7-12.7-2.5-3.2-5.8-4.9-9.9-4.9-4 0-7.3 1.6-9.7 4.8-2.4 3.3-3.6 7.9-3.6 13.8zm64.4 17.5c2.9 0 5.4-.9 7.6-2.6s3.4-4 3.6-6.6h7.7c-.1 2.7-1.1 5.3-2.8 7.8s-4 4.4-6.9 5.9-5.9 2.2-9.2 2.2c-6.5 0-11.6-2.2-15.4-6.5-3.8-4.3-5.7-10.2-5.7-17.7v-1.4c0-4.6.8-8.7 2.5-12.3s4.1-6.4 7.3-8.4 6.9-3 11.3-3c5.3 0 9.8 1.6 13.3 4.8 3.5 3.2 5.4 7.3 5.6 12.4h-7.7c-.2-3.1-1.4-5.6-3.5-7.6s-4.7-3-7.8-3c-4.1 0-7.3 1.5-9.6 4.5s-3.4 7.3-3.4 12.9v1.5c0 5.5 1.1 9.7 3.4 12.7 2.3 2.9 5.5 4.4 9.7 4.4zm55.7-6.8c0-2.2-.8-3.9-2.5-5.1-1.7-1.2-4.5-2.3-8.7-3.1s-7.4-1.9-9.8-3.2c-2.4-1.2-4.2-2.7-5.4-4.4-1.2-1.7-1.7-3.7-1.7-6.1 0-3.9 1.6-7.2 4.9-9.9 3.3-2.7 7.5-4 12.6-4 5.4 0 9.8 1.4 13.1 4.2 3.4 2.8 5 6.3 5 10.7h-8.2c0-2.2-.9-4.1-2.8-5.8-1.9-1.6-4.3-2.4-7.1-2.4-3 0-5.3.6-6.9 1.9-1.7 1.3-2.5 3-2.5 5.1 0 2 .8 3.4 2.3 4.4 1.6 1 4.4 1.9 8.4 2.9 4.1.9 7.3 2 9.9 3.3 2.5 1.3 4.4 2.8 5.6 4.5 1.2 1.8 1.8 3.9 1.8 6.5 0 4.2-1.7 7.7-5.1 10.2-3.4 2.6-7.8 3.8-13.2 3.8-3.8 0-7.2-.7-10.1-2s-5.2-3.2-6.9-5.6c-1.7-2.4-2.5-5-2.5-7.8h8.1c.1 2.7 1.2 4.9 3.3 6.5 2 1.6 4.7 2.4 8.1 2.4 3.1 0 5.5-.6 7.4-1.9 2-1.4 2.9-3 2.9-5.1z" fill="#fff"/></svg>