<svg xmlns="http://www.w3.org/2000/svg" viewBox="0 0 935 192.5"><path d="M738.4 87.6v-64h18.1c5.6 0 10.5 1.2 14.8 3.7s7.6 6 9.9 10.5c2.3 4.5 3.5 9.8 3.5 15.6v4.1c0 6-1.2 11.3-3.5 15.9-2.3 4.5-5.7 8-10 10.5-4.3 2.4-9.4 3.7-15.1 3.7h-17.7zm8.5-57.1v50.2h8.9c6.5 0 11.6-2 15.2-6.1s5.4-9.8 5.4-17.3v-3.7c0-7.3-1.7-12.9-5.1-17-3.4-4-8.3-6.1-14.5-6.1h-9.9zM794 63.4c0-4.7.9-8.8 2.7-12.6 1.8-3.7 4.4-6.6 7.6-8.6 3.3-2 7-3 11.2-3 6.5 0 11.7 2.2 15.7 6.7s6 10.4 6 17.9v.6c0 4.6-.9 8.8-2.7 12.5s-4.3 6.5-7.6 8.6-7.1 3.1-11.4 3.1c-6.4 0-11.7-2.2-15.7-6.7s-6-10.4-6-17.8v-.7h.2zm8.2.9c0 5.3 1.2 9.5 3.7 12.7 2.4 3.2 5.7 4.8 9.8 4.8s7.4-1.6 9.8-4.9c2.4-3.2 3.6-7.8 3.6-13.6 0-5.2-1.2-9.4-3.7-12.7-2.5-3.2-5.8-4.9-9.9-4.9-4 0-7.3 1.6-9.7 4.8-2.4 3.3-3.6 7.9-3.6 13.8zm64.4 17.5c2.9 0 5.4-.9 7.6-2.6s3.4-4 3.6-6.6h7.7c-.1 2.7-1.1 5.3-2.8 7.8s-4 4.4-6.9 5.9-5.9 2.2-9.2 2.2c-6.5 0-11.6-2.2-15.4-6.5-3.8-4.3-5.7-10.2-5.7-17.7v-1.4c0-4.6.8-8.7 2.5-12.3s4.1-6.4 7.3-8.4 6.9-3 11.3-3c5.3 0 9.8 1.6 13.3 4.8s5.4 7.3 5.6 12.4h-7.7c-.2-3.1-1.4-5.6-3.5-7.6s-4.7-3-7.8-3c-4.1 0-7.3 1.5-9.6 4.5s-3.4 7.3-3.4 12.9v1.5c0 5.5 1.1 9.7 3.4 12.7 2.3 2.9 5.5 4.4 9.7 4.4zm55.7-6.8c0-2.2-.8-3.9-2.5-5.1s-4.5-2.3-8.7-3.1-7.4-1.9-9.8-3.2c-2.4-1.2-4.2-2.7-5.4-4.4s-1.7-3.7-1.7-6.1c0-3.9 1.6-7.2 4.9-9.9 3.3-2.7 7.5-4 12.6-4 5.4 0 9.8 1.4 13.1 4.2 3.4 2.8 5 6.3 5 10.7h-8.2c0-2.2-.9-4.1-2.8-5.8-1.9-1.6-4.3-2.4-7.1-2.4-3 0-5.3.6-6.9 1.9-1.7 1.3-2.5 3-2.5 5.1 0 2 .8 3.4 2.3 4.4 1.6 1 4.4 1.9 8.4 2.9 4.1.9 7.3 2 9.9 3.3 2.5 1.3 4.4 2.8 5.6 4.5 1.2 1.8 1.8 3.9 1.8 6.5 0 4.2-1.7 7.7-5.1 10.2-3.4 2.6-7.8 3.8-13.2 3.8-3.8 0-7.2-.7-10.1-2s-5.2-3.2-6.9-5.6-2.5-5-2.5-7.8h8.1c.1 2.7 1.2 4.9 3.3 6.5 2 1.6 4.7 2.4 8.1 2.4 3.1 0 5.5-.6 7.4-1.9 2-1.4 2.9-3 2.9-5.1zm-782.8-.5c1.6 0 2.9 0 3.7.1.9.1 1.5.3 1.9.7.4.4.7 1 .7 1.9.1.9.1 2.1.1 3.7s0 2.9-.1 3.7c-.1.9-.3 1.5-.7 1.9-.4.4-1 .7-1.9.7-.9.1-2.1.1-3.7.1h-23.8c-5.8 0-10.6-.1-14.6-.2-3.9-.1-7.2-.5-9.8-1.2-2.6-.6-4.6-1.6-6-3-1.4-1.4-2.4-3.4-3-6-.6-2.6-1-5.8-1.2-9.8-.1-3.7-.1-8.5-.1-14.3 0-5.8.1-10.6.2-14.6.1-3.9.5-7.2 1.2-9.8.6-2.6 1.6-4.6 3-6 1.4-1.4 3.4-2.4 6-3 2.6-.6 5.8-1 9.8-1.1 3.9-.1 8.8-.2 14.6-.2 5.8 0 10.6.1 14.6.2 3.9.1 7.2.5 9.8 1.1 2.6.6 4.6 1.6 6 3 1.4 1.4 2.4 3.2 3 5.6.6 2.4 1 5.4 1.2 9.1.1 3.7.2 8.2.2 13.5 0 2.2 0 3.8-.1 5-.1 1.2-.4 2-.9 2.6-.5.5-1.4.9-2.6.9-1.2.1-2.8.1-5 .1H94c0 3.8.1 6.7.3 8.7.2 2 .7 3.5 1.7 4.5.9.9 2.4 1.5 4.5 1.7 2 .2 4.9.3 8.7.3h30.3m-2.2-28.1c0-3.8-.1-6.7-.3-8.7-.2-2-.7-3.5-1.7-4.5-.9-.9-2.4-1.5-4.5-1.7-2-.2-4.9-.3-8.7-.3h-13c-3.8 0-6.7.1-8.7.3-2 .2-3.5.7-4.5 1.7-.9.9-1.5 2.4-1.7 4.5-.2 2-.3 4.9-.3 8.7h43.4zm68.3 28.2c1.9 0 3.3 0 4.3-.1s1.7-.4 2.2-.9c.5-.5.8-1.2.9-2.2.1-1 .1-2.4.1-4.3s0-3.3-.1-4.3-.4-1.7-.9-2.2c-.5-.5-1.2-.8-2.2-.9-1-.1-2.4-.1-4.3-.1h-23.8c-5.1 0-9.1-.1-11.9-.3-2.8-.2-4.8-1-6.1-2.3-1.3-1.3-2.1-3.3-2.3-6.1-.2-2.8-.3-6.7-.3-11.9 0-5.1.1-9.1.3-11.9.2-2.8 1-4.8 2.3-6.1 1.3-1.3 3.3-2.1 6.1-2.3 2.8-.2 6.7-.3 11.9-.3h29.4c1.6 0 2.9 0 3.7.1.9.1 1.5.3 1.9.7.4.4.7 1 .7 1.9.1.9.1 2.1.1 3.7s0 2.9-.1 3.7c-.1.9-.3 1.5-.7 1.9-.4.4-1 .7-1.9.7-.9.1-2.1.1-3.7.1h-29.4c-1.9 0-3.3 0-4.3.1s-1.7.4-2.2.9c-.5.5-.8 1.2-.9 2.2-.1 1-.1 2.4-.1 4.3s0 3.3.1 4.3.4 1.7.9 2.2c.5.5 1.2.8 2.2.9 1 .1 2.4.1 4.3.1h23.8c5.1 0 9.1.1 11.9.3 2.8.2 4.8 1 6.1 2.3 1.3 1.3 2.1 3.3 2.3 6.1.2 2.8.3 6.7.3 11.9 0 5.1-.1 9.1-.3 11.9-.2 2.8-1 4.8-2.3 6.1-1.3 1.3-3.3 2.1-6.1 2.3-2.8.2-6.7.3-11.9.3h-37.9c-1.6 0-2.9 0-3.7-.1-.9-.1-1.5-.3-1.9-.7-.4-.4-.7-1-.7-1.9-.1-.9-.1-2.1-.1-3.7s0-2.9.1-3.7c.1-.9.3-1.5.7-1.9.4-.4 1-.7 1.9-.7.9-.1 2.1-.1 3.7-.1h37.9m158.3 0c1.6 0 2.9 0 3.7.1.9.1 1.5.3 1.9.7.4.4.7 1 .7 1.9.1.9.1 2.1.1 3.7s0 2.9-.1 3.7c-.1.9-.3 1.5-.7 1.9-.4.4-1 .7-1.9.7-.9.1-2.1.1-3.7.1h-19.5c-5.8 0-10.6-.1-14.6-.2-3.9-.1-7.2-.5-9.8-1.2-2.6-.6-4.6-1.6-6-3-1.4-1.4-2.4-3.4-3-6-.6-2.6-1-5.8-1.2-9.8-.1-3.9-.2-8.8-.2-14.6 0-5.8.1-10.6.2-14.6.1-3.9.5-7.2 1.2-9.8.6-2.6 1.6-4.6 3-6 1.4-1.4 3.4-2.4 6-3 2.6-.6 5.8-1 9.8-1.2 3.9-.1 8.8-.2 14.6-.2h19.5c1.6 0 2.9 0 3.7.1.9.1 1.5.3 1.9.7.4.4.7 1 .7 1.9.1.9.1 2.1.1 3.7s0 2.9-.1 3.7c-.1.9-.3 1.5-.7 1.9-.4.4-1 .7-1.9.7-.9.1-2.1.1-3.7.1h-19.5c-5.4 0-9.6.1-12.5.3-2.9.2-5.1 1-6.4 2.4-1.4 1.4-2.1 3.5-2.4 6.4-.2 2.9-.3 7.1-.3 12.5s.1 9.6.3 12.5c.2 2.9 1 5.1 2.4 6.4 1.4 1.4 3.5 2.1 6.4 2.4 2.9.2 7.1.3 12.5.3h19.5m52-55.6c5.8 0 10.6.1 14.6.2 3.9.1 7.2.5 9.8 1.2 2.6.6 4.6 1.6 6 3 1.4 1.4 2.4 3.4 3 6 .6 2.6 1 5.8 1.1 9.8.1 3.9.2 8.8.2 14.6 0 5.8-.1 10.6-.2 14.6-.1 3.9-.5 7.2-1.1 9.8-.6 2.6-1.6 4.6-3 6-1.4 1.4-3.4 2.4-6 3-2.6.6-5.8 1-9.8 1.2-3.9.1-8.8.2-14.6.2-5.8 0-10.6-.1-14.6-.2-3.9-.1-7.2-.5-9.8-1.2-2.6-.6-4.6-1.6-6-3-1.4-1.4-2.4-3.4-3-6-.6-2.6-1-5.8-1.2-9.8-.1-3.9-.2-8.8-.2-14.6 0-5.8.1-10.6.2-14.6.1-3.9.5-7.2 1.2-9.8.6-2.6 1.6-4.6 3-6 1.4-1.4 3.4-2.4 6-3 2.6-.6 5.8-1 9.8-1.2 3.9-.1 8.8-.2 14.6-.2m21.7 34.7c0-5.4-.1-9.6-.3-12.5-.2-2.9-1-5.1-2.4-6.4s-3.5-2.1-6.4-2.4c-2.9-.2-7.1-.3-12.5-.3s-9.6.1-12.5.3c-2.9.2-5.1 1-6.4 2.4-1.4 1.4-2.1 3.5-2.4 6.4-.2 2.9-.3 7.1-.3 12.5s.1 9.6.3 12.5c.2 2.9 1 5.1 2.4 6.4 1.4 1.4 3.5 2.1 6.4 2.4 2.9.2 7.1.3 12.5.3s9.6-.1 12.5-.3c2.9-.2 5.1-1 6.4-2.4 1.4-1.4 2.1-3.5 2.4-6.4.1-2.9.3-7.1.3-12.5zm24.3-26c0-2.2 0-3.8.1-5 .1-1.2.4-2 .9-2.6.5-.5 1.4-.9 2.6-.9 1.2-.1 2.8-.1 5-.1h48.9c5.1 0 9.3 0 12.7.1 3.4.1 6.3.4 8.5 1 2.3.6 4 1.5 5.2 2.7 1.2 1.2 2.1 3 2.7 5.2.6 2.3.9 5.1 1 8.6.1 3.5.1 7.7.1 12.7V81c0 1.6 0 2.9-.1 3.7-.1.9-.3 1.5-.7 1.9-.4.4-1 .7-1.9.7-.9.1-2.1.1-3.7.1s-2.9 0-3.7-.1c-.9-.1-1.5-.3-1.9-.7-.4-.4-.7-1-.7-1.9-.1-.9-.1-2.1-.1-3.7V48.4c0-4.3-.1-7.7-.3-10-.2-2.3-.8-4.1-1.9-5.1-1.1-1.1-2.8-1.7-5.1-1.9-2.3-.2-5.7-.3-10-.3h-7.1V81c0 1.6 0 2.9-.1 3.7-.1.9-.3 1.5-.7 1.9-.4.4-1 .7-1.9.7-.9.1-2.1.1-3.7.1s-2.9 0-3.7-.1c-.9-.1-1.5-.3-1.9-.7-.4-.4-.7-1-.7-1.9-.1-.9-.1-2.1-.1-3.7V31.1H475V81c0 1.6 0 2.9-.1 3.7-.1.9-.3 1.5-.7 1.9-.4.4-1 .7-1.9.7-.9.1-2.1.1-3.7.1s-2.9 0-3.7-.1c-.9-.1-1.5-.3-1.9-.7-.4-.4-.7-1-.7-1.9-.1-.9-.1-2.1-.1-3.7V26.8m99 0c0-2.2 0-3.8.1-5 .1-1.2.4-2 .9-2.6.5-.5 1.4-.9 2.6-.9 1.2-.1 2.8-.1 5-.1h48.9c5.1 0 9.3 0 12.7.1 3.4.1 6.3.4 8.5 1 2.3.6 4 1.5 5.2 2.7 1.2 1.2 2.1 3 2.7 5.2.6 2.3.9 5.1 1 8.6s.1 7.7.1 12.7V81c0 1.6 0 2.9-.1 3.7-.1.9-.3 1.5-.7 1.9-.4.4-1 .7-1.9.7-.9.1-2.1.1-3.7.1s-2.9 0-3.7-.1c-.9-.1-1.5-.3-1.9-.7-.4-.4-.7-1-.7-1.9-.1-.9-.1-2.1-.1-3.7V48.4c0-4.3-.1-7.7-.3-10-.2-2.3-.8-4.1-1.9-5.1-1.1-1.1-2.8-1.7-5.1-1.9-2.4-.2-5.7-.3-10-.3h-7.1V81c0 1.6 0 2.9-.1 3.7-.1.9-.3 1.5-.7 1.9-.4.4-1 .7-1.9.7-.9.1-2.1.1-3.7.1s-2.9 0-3.7-.1c-.9-.1-1.5-.3-1.9-.7-.4-.4-.7-1-.7-1.9-.1-.9-.1-2.1-.1-3.7V31.1h-24.4V81c0 1.6 0 2.9-.1 3.7-.1.9-.3 1.5-.7 1.9-.4.4-1 .7-1.9.7-.9.1-2.1.1-3.7.1s-2.9 0-3.7-.1c-.9-.1-1.5-.3-1.9-.7-.4-.4-.7-1-.7-1.9-.1-.9-.1-2.1-.1-3.7V26.8M16.9 31.1V81c0 1.6 0 2.9-.1 3.7-.1.9-.3 1.5-.7 1.9-.4.4-1 .7-1.9.7-.9.1-2.1.1-3.7.1s-2.9 0-3.7-.1c-.9-.1-1.5-.3-1.9-.7-.4-.4-.7-1-.7-1.9-.1-.9-.1-2.1-.1-3.7V26.8c0-2.2 0-3.8.1-5 .1-1.2.4-2 .9-2.6.5-.5 1.4-.9 2.6-.9 1.2-.1 2.8-.1 5-.1h29.1c5.1 0 9.3 0 12.7.1 3.4.1 6.3.4 8.5 1 2.3.6 4 1.5 5.2 2.7 1.2 1.2 2.1 3 2.7 5.2.6 2.3.9 5.1 1 8.6.1 3.5.1 6.2.1 6.2 0 1.6 0 2.9-.1 3.7-.1.9-.3 1.5-.7 1.9-.4.4-1 .7-1.9.7-.9.1-2.1.1-3.7.1s-2.9 0-3.7-.1c-.9-.1-1.5-.3-1.9-.7-.4-.4-.7-1-.7-1.9-.1-.9-.1-2.1-.1-3.7 0 0-.1-2.6-.1-5.1 0-1.5-.5-2.9-1.3-3.8-.9-1-3.3-1.9-7.1-1.9H16.9m282.2 44.3c-.4-.4-1-.7-1.9-.7-.9-.1-2.1-.1-3.7-.1h-14.8c-3.8 0-6.7-.1-8.7-.3-2-.2-3.5-.7-4.5-1.7-.9-.9-1.5-2.4-1.7-4.5-.2-2-.3-4.9-.3-8.7V31.2h21.3-2.9 11.6c1.6 0 2.9 0 3.7-.1.9-.1 1.5-.3 1.9-.7.4-.4.7-1 .7-1.9.1-.9.1-2.1.1-3.7s0-2.9-.1-3.7c-.1-.9-.3-1.5-.7-1.9-.4-.4-1-.7-1.9-.7-.9-.1-2.1-.1-3.7-.1h-29.9l-.1-6.8c0-1.6 0-2.9-.1-3.7-.1-.9-.3-1.5-.7-1.9-.4-.4-1-.7-1.9-.7-.9-.1-2.1-.1-3.7-.1s-2.9 0-3.7.1c-.9.1-1.5.3-1.9.7-.4.4-.7 1-.7 1.9-.1.9-.1 2.1-.1 3.7v6.8h-17.4c-1.6 0-2.9 0-3.7.1-.9.1-1.5.3-1.9.7-.4.4-.7 1-.7 1.9-.1.9-.1 2.1-.1 3.7s0 2.9.1 3.7c.1.9.3 1.5.7 1.9.4.4 1 .7 1.9.7.9.1 2.1.1 3.7.1h17.4v21.7c0 5.8.1 10.6.2 14.6.1 3.9.5 7.2 1.1 9.8.6 2.6 1.6 4.6 3 6 1.4 1.4 3.4 2.4 6 3 2.6.6 5.8 1 9.8 1.2 3.9.1 8.8.2 14.6.2h8.3c1.6 0 2.9 0 3.7-.1.9-.1 1.5-.3 1.9-.7.4-.4.7-1 .7-1.9.1-.9.1-2.1.1-3.7s0-2.9-.1-3.7c-.2-1.1-.5-1.7-.9-2.1" fill="#fff"/></svg>