<svg version="1.1" id="Layer_1" xmlns="http://www.w3.org/2000/svg" x="0" y="0" viewBox="0 0 100 80" xml:space="preserve"><style>.st0{fill:#44a5ab}</style><path class="st0" d="M52.1 31.2h-1.4l-.1 11-2.3-2.3-1 1 4 4.1 4.1-4.1-1-1-2.3 2.3zm-22.9.2l-1.4.4 3.6 10.5-2.9-1.5-.7 1.3 5.2 2.5 2.5-5.1-1.3-.7-1.4 3z"/><path d="M16.4 28.1c0 .2.1.3.2.4.1.1.3.2.4.2h15.3c.2 0 .3-.1.4-.2.1-.1.2-.3.2-.4 0-2.7-.9-4.9-2.4-6.5-1-1.1-2.3-1.8-3.7-2.2 2.1-.8 3.5-2.9 3.5-5.2 0-3.1-2.5-5.7-5.7-5.7-3.1 0-5.7 2.5-5.7 5.7 0 2.4 1.5 4.4 3.5 5.2-1.4.4-2.7 1.1-3.7 2.2-1.4 1.6-2.3 3.9-2.3 6.5zm3.8-13.9c0-1.2.5-2.4 1.3-3.2.8-.8 1.9-1.3 3.2-1.3 1.2 0 2.4.5 3.2 1.3.8.8 1.3 1.9 1.3 3.2 0 1.2-.5 2.4-1.3 3.2-.8.8-1.9 1.3-3.2 1.3-1.2 0-2.4-.5-3.2-1.3-.8-.9-1.3-2-1.3-3.2zm4.4 6.1c1.9 0 3.7.8 5 2.1 1.2 1.3 1.9 3 2.1 5.1h-14c.1-2.1.9-3.9 2.1-5.1 1.2-1.4 2.9-2.1 4.8-2.1zm17.9 7.8c0 .2.1.3.2.4.1.1.3.2.4.2h15.3c.2 0 .3-.1.4-.2.1-.1.2-.3.2-.4 0-2.7-.9-4.9-2.4-6.5-1-1.1-2.3-1.8-3.7-2.2 2.1-.8 3.5-2.9 3.5-5.2 0-3.1-2.5-5.7-5.7-5.7-3.1 0-5.7 2.5-5.7 5.7 0 2.4 1.5 4.4 3.5 5.2-1.4.4-2.7 1.1-3.7 2.2-1.4 1.6-2.3 3.9-2.3 6.5zm3.7-13.9c0-1.2.5-2.4 1.3-3.2.8-.8 1.9-1.3 3.2-1.3 1.2 0 2.4.5 3.2 1.3.8.8 1.3 1.9 1.3 3.2 0 1.2-.5 2.4-1.3 3.2-.8.8-1.9 1.3-3.2 1.3-1.2 0-2.4-.5-3.2-1.3-.8-.9-1.3-2-1.3-3.2zm4.5 6.1c1.9 0 3.7.8 5 2.1 1.2 1.3 1.9 3 2.1 5.1h-14c.1-2.1.9-3.9 2.1-5.1 1.1-1.4 2.8-2.1 4.8-2.1zm17.8 7.8c0 .2.1.3.2.4.1.1.3.2.4.2h15.3c.2 0 .3-.1.4-.2.1-.1.2-.3.2-.4 0-2.7-.9-4.9-2.4-6.5-1-1.1-2.3-1.8-3.7-2.2 2.1-.8 3.5-2.9 3.5-5.2 0-3.1-2.5-5.7-5.7-5.7-3.1 0-5.7 2.5-5.7 5.7 0 2.4 1.5 4.4 3.5 5.2-1.4.4-2.7 1.1-3.7 2.2-1.4 1.6-2.3 3.9-2.3 6.5zm3.7-13.9c0-1.2.5-2.4 1.3-3.2.8-.8 1.9-1.3 3.2-1.3 1.2 0 2.4.5 3.2 1.3.8.8 1.3 1.9 1.3 3.2 0 1.2-.5 2.4-1.3 3.2-.8.8-1.9 1.3-3.2 1.3-1.2 0-2.4-.5-3.2-1.3-.8-.9-1.3-2-1.3-3.2zm4.5 6.1c1.9 0 3.7.8 5 2.1 1.2 1.3 1.9 3 2.1 5.1h-14c.1-2.1.9-3.9 2.1-5.1 1.1-1.4 2.9-2.1 4.8-2.1z" stroke="#44a5ab" stroke-width=".75" stroke-miterlimit="10" fill="#44a5ab"/><path d="M75 72.7c-.4 0-.8-.1-1.1-.3l-9.2-5.2c-.8-.4-1.3-1.3-1.3-2.2v-5.6c0-.2-.1-.4-.3-.5-1.5-.4-5.9-1.2-11.7-1.2-5.8 0-10.2.8-11.7 1.2-.2.1-.3.2-.3.5V65c0 .9-.5 1.8-1.3 2.2l-9.2 5.2c-.4.2-.8.3-1.2.3h0c-.7 0-1.3-.3-1.7-.7l-1.9-2c-.2-.2-.7-.8-.7-3.3 0-2.6.7-7.5 3.1-10 1.8-1.9 9-8 24.9-8 15.9 0 23.1 6.1 24.9 8 2.4 2.5 3.1 7.5 3.1 10s-.5 3.1-.7 3.3l-1.9 1.9c-.5.5-1.1.8-1.8.8zm-23.6-17c6 0 10.5.8 12.2 1.3 1.1.3 1.8 1.3 1.8 2.4V65c0 .2.1.3.2.4l9.2 5.2c.1.1.3 0 .5-.1l1.9-1.9s.2-.6.2-1.9c0-3-.9-7-2.5-8.6-1.7-1.7-8.4-7.4-23.5-7.4s-21.8 5.6-23.5 7.4c-1.6 1.7-2.5 5.6-2.5 8.6 0 1.3.2 1.9.2 2l1.8 1.9c.1.1.3.2.5.1l9.2-5.2c.2-.1.3-.3.3-.4v-5.6c0-1.1.7-2.1 1.8-2.4 1.7-.6 6.2-1.4 12.2-1.4z" fill="#e63a29" stroke="#e63a29" stroke-miterlimit="10"/><path class="st0" d="M73.7 31.4l1.4.4-3.6 10.5 3-1.5.6 1.3-5.2 2.5-2.5-5.1 1.3-.7 1.4 3z"/></svg>