<svg xmlns="http://www.w3.org/2000/svg" viewBox="0 0 843.5 199.9"><path d="M50.1 180.1c-.7 5.7-2.8 10.1-6.3 13.2-3.6 3.1-8.3 4.7-14.2 4.7-6.4 0-11.5-2.3-15.3-6.9-3.8-4.6-5.8-10.7-5.8-18.4v-5.2c0-5 .9-9.4 2.7-13.2s4.3-6.7 7.6-8.8c3.3-2 7.1-3.1 11.4-3.1 5.7 0 10.3 1.6 13.8 4.8s5.5 7.6 6 13.3h-7c-.6-4.3-2-7.4-4-9.4-2.1-1.9-5-2.9-8.7-2.9-4.6 0-8.1 1.7-10.7 5.1-2.6 3.4-3.9 8.2-3.9 14.4v5.2c0 5.9 1.2 10.5 3.7 14 2.4 3.5 5.9 5.2 10.3 5.2 4 0 7-.9 9.1-2.7s3.5-4.9 4.2-9.4l7.1.1zm16.9-4v21.2h-7.1v-54h19.9c5.9 0 10.5 1.5 13.9 4.5s5 7 5 12c0 5.2-1.6 9.3-4.9 12.1s-8 4.2-14.1 4.2H67zm0-5.8h12.8c3.8 0 6.7-.9 8.8-2.7 2-1.8 3-4.4 3-7.8 0-3.2-1-5.8-3-7.7s-4.8-2.9-8.3-3H67v21.2zm64.1 27c-.4-.8-.7-2.2-1-4.2-3.2 3.3-7 5-11.4 5-4 0-7.2-1.1-9.7-3.4-2.5-2.2-3.8-5.1-3.8-8.5 0-4.2 1.6-7.4 4.8-9.7 3.2-2.3 7.7-3.5 13.4-3.5h6.7v-3.2c0-2.4-.7-4.3-2.2-5.7-1.4-1.4-3.6-2.1-6.3-2.1-2.4 0-4.5.6-6.2 1.9-1.7 1.2-2.5 2.7-2.5 4.5H106c0-2 .7-3.9 2.1-5.8 1.4-1.9 3.4-3.3 5.8-4.4 2.4-1.1 5.1-1.6 8-1.6 4.6 0 8.3 1.2 10.9 3.5s4 5.5 4.1 9.6v18.5c0 3.7.5 6.6 1.4 8.8v.6h-7.2v-.3zm-11.4-5.3c2.2 0 4.2-.6 6.1-1.7s3.3-2.6 4.2-4.3v-8.2h-5.4c-8.4 0-12.6 2.5-12.6 7.4 0 2.2.7 3.8 2.2 5 1.4 1.2 3.3 1.8 5.5 1.8zm52.7 5.3c-.4-.8-.7-2.2-1-4.2-3.2 3.3-7 5-11.4 5-4 0-7.2-1.1-9.7-3.4-2.5-2.2-3.8-5.1-3.8-8.5 0-4.2 1.6-7.4 4.8-9.7s7.7-3.5 13.4-3.5h6.7v-3.2c0-2.4-.7-4.3-2.2-5.7-1.4-1.4-3.6-2.1-6.3-2.1-2.4 0-4.5.6-6.2 1.9-1.7 1.2-2.5 2.7-2.5 4.5h-6.9c0-2 .7-3.9 2.1-5.8 1.4-1.9 3.4-3.3 5.8-4.4 2.4-1.1 5.1-1.6 8-1.6 4.6 0 8.3 1.2 10.9 3.5 2.6 2.3 4 5.5 4.1 9.6v18.5c0 3.7.5 6.6 1.4 8.8v.6h-7.2v-.3zM161 192c2.2 0 4.2-.6 6.1-1.7s3.3-2.6 4.2-4.3v-8.2H166c-8.4 0-12.6 2.5-12.6 7.4 0 2.2.7 3.8 2.2 5 1.4 1.2 3.2 1.8 5.4 1.8zm45-18.8c-6.1-1.8-10.6-3.9-13.3-6.5s-4.2-5.7-4.2-9.5c0-4.3 1.7-7.8 5.1-10.6 3.4-2.8 7.8-4.2 13.3-4.2 3.7 0 7 .7 9.9 2.2 2.9 1.4 5.2 3.4 6.8 5.9s2.4 5.3 2.4 8.3h-7.2c0-3.3-1-5.9-3.1-7.7s-5-2.8-8.8-2.8c-3.5 0-6.3.8-8.2 2.3-2 1.5-3 3.7-3 6.4 0 2.2.9 4.1 2.8 5.6s5 2.9 9.5 4.2 8 2.7 10.5 4.2 4.4 3.3 5.6 5.3 1.8 4.4 1.8 7.2c0 4.4-1.7 7.9-5.1 10.5s-8 4-13.7 4c-3.7 0-7.2-.7-10.4-2.1-3.2-1.4-5.7-3.4-7.4-5.8s-2.6-5.3-2.6-8.4h7.2c0 3.3 1.2 5.8 3.6 7.7s5.6 2.8 9.7 2.8c3.8 0 6.6-.8 8.6-2.3s3-3.6 3-6.3-.9-4.7-2.8-6.1-5.1-2.9-10-4.3zm78.5-.9h-23.4v19.1h27.2v5.8H254v-54h34v5.8h-26.8v17.4h23.4v5.9h-.1zm18.1-15.2l.2 5c3.1-3.9 7.1-5.8 12-5.8 8.5 0 12.8 4.8 12.8 14.4v26.5h-6.9v-26.6c0-2.9-.7-5-2-6.4s-3.3-2.1-6.1-2.1c-2.2 0-4.2.6-5.9 1.8-1.7 1.2-3 2.7-3.9 4.7v28.6h-6.9V157h6.7v.1zm60.2 40.2c-.4-.8-.7-2.2-1-4.2-3.2 3.3-7 5-11.4 5-4 0-7.2-1.1-9.7-3.4-2.5-2.2-3.8-5.1-3.8-8.5 0-4.2 1.6-7.4 4.8-9.7 3.2-2.3 7.7-3.5 13.4-3.5h6.7v-3.2c0-2.4-.7-4.3-2.2-5.7-1.4-1.4-3.6-2.1-6.3-2.1-2.4 0-4.5.6-6.2 1.9-1.7 1.2-2.5 2.7-2.5 4.5h-6.9c0-2 .7-3.9 2.1-5.8 1.4-1.9 3.4-3.3 5.8-4.4 2.4-1.1 5.1-1.6 8-1.6 4.6 0 8.3 1.2 10.9 3.5s4 5.5 4.1 9.6v18.5c0 3.7.5 6.6 1.4 8.8v.6h-7.2v-.3zm-11.4-5.3c2.2 0 4.2-.6 6.1-1.7s3.3-2.6 4.2-4.3v-8.2h-5.4c-8.4 0-12.6 2.5-12.6 7.4 0 2.2.7 3.8 2.2 5 1.4 1.2 3.3 1.8 5.5 1.8zm62-14.4c0 6.1-1.4 11.1-4.2 14.8s-6.6 5.6-11.4 5.6c-5.1 0-9-1.8-11.8-5.4l-.3 4.6h-6.3v-57h6.9v21.3c2.8-3.4 6.6-5.2 11.5-5.2s8.7 1.8 11.5 5.5 4.2 8.7 4.2 15.1v.7h-.1zm-6.9-.7c0-4.7-.9-8.3-2.7-10.8-1.8-2.5-4.4-3.8-7.8-3.8-4.5 0-7.8 2.1-9.8 6.3V186c2.1 4.2 5.4 6.3 9.8 6.3 3.3 0 5.9-1.3 7.7-3.8 1.9-2.7 2.8-6.5 2.8-11.6zm23 20.4h-6.9v-57h6.9v57zm27.6.7c-5.4 0-9.9-1.8-13.3-5.4s-5.1-8.4-5.1-14.3V177c0-4 .8-7.5 2.3-10.7s3.6-5.6 6.4-7.3c2.7-1.8 5.7-2.7 8.9-2.7 5.2 0 9.3 1.7 12.2 5.2 2.9 3.4 4.3 8.4 4.3 14.8v2.9h-27.2c.1 4 1.3 7.2 3.5 9.6 2.2 2.4 5 3.7 8.4 3.7 2.4 0 4.5-.5 6.2-1.5s3.2-2.3 4.4-3.9l4.2 3.3c-3.4 5-8.5 7.6-15.2 7.6zm-.8-36c-2.8 0-5.1 1-7 3s-3 4.8-3.5 8.5h20.1v-.5c-.2-3.5-1.1-6.2-2.8-8.1-1.7-1.9-4-2.9-6.8-2.9zm30.9-4.9l.2 4.5c2.9-3.5 6.9-5.2 11.9-5.2 5.6 0 9.4 2.2 11.5 6.5 1.3-1.9 3.1-3.5 5.2-4.7s4.7-1.8 7.6-1.8c8.8 0 13.3 4.7 13.4 14v26.9h-6.9v-26.5c0-2.9-.7-5-2-6.4s-3.5-2.1-6.6-2.1c-2.5 0-4.7.8-6.3 2.3s-2.7 3.6-2.9 6.1v26.6h-6.9V171c0-5.8-2.9-8.8-8.6-8.8-4.5 0-7.6 1.9-9.2 5.8v29.3h-6.9v-40.2h6.5zM564 198c-5.4 0-9.9-1.8-13.3-5.4s-5.1-8.4-5.1-14.3V177c0-4 .8-7.5 2.3-10.7s3.6-5.6 6.4-7.3 5.7-2.7 8.9-2.7c5.2 0 9.3 1.7 12.2 5.2s4.3 8.4 4.3 14.8v2.9h-27.2c.1 4 1.3 7.2 3.5 9.6s5 3.7 8.4 3.7c2.4 0 4.5-.5 6.2-1.5s3.2-2.3 4.4-3.9l4.2 3.3c-3.4 5-8.5 7.6-15.2 7.6zm-.9-36c-2.8 0-5.1 1-7 3s-3 4.8-3.5 8.5h20.1v-.5c-.2-3.5-1.1-6.2-2.8-8.1s-3.9-2.9-6.8-2.9zm31-4.9l.2 5c3.1-3.9 7.1-5.8 12-5.8 8.5 0 12.8 4.8 12.8 14.4v26.5h-6.9v-26.6c0-2.9-.7-5-2-6.4s-3.3-2.1-6.1-2.1c-2.2 0-4.2.6-5.9 1.8s-3 2.7-3.9 4.7v28.6h-6.9V157h6.7v.1zm44.7-9.7v9.7h7.5v5.3h-7.5v24.9c0 1.6.3 2.8 1 3.6s1.8 1.2 3.4 1.2c.8 0 1.9-.1 3.3-.4v5.5c-1.8.5-3.6.7-5.3.7-3.1 0-5.4-.9-6.9-2.8s-2.3-4.5-2.3-7.9v-24.9h-7.3V157h7.3v-9.7l6.8.1zm35.4 49.9v-54h15.3c4.7 0 8.9 1 12.5 3.1s6.4 5 8.4 8.9 3 8.2 3 13.2v3.5c0 5.1-1 9.6-3 13.4s-4.8 6.8-8.4 8.8c-3.6 2.1-7.9 3.1-12.7 3.2l-15.1-.1zm7.2-48.2v42.4h7.5c5.5 0 9.8-1.7 12.8-5.1 3.1-3.4 4.6-8.3 4.6-14.6v-3.2c0-6.1-1.4-10.9-4.3-14.3-2.9-3.4-7-5.1-12.3-5.2h-8.3zm39.8 27.7c0-3.9.8-7.5 2.3-10.6s3.7-5.6 6.5-7.3 5.9-2.6 9.4-2.6c5.5 0 9.9 1.9 13.3 5.7s5.1 8.8 5.1 15.1v.5c0 3.9-.7 7.4-2.2 10.5s-3.6 5.5-6.4 7.3-6 2.6-9.6 2.6c-5.4 0-9.9-1.9-13.2-5.7s-5.1-8.8-5.1-15l-.1-.5zm6.9.8c0 4.5 1 8 3.1 10.7s4.8 4 8.3 4 6.3-1.4 8.3-4.1c2.1-2.7 3.1-6.6 3.1-11.5 0-4.4-1-8-3.1-10.7s-4.9-4.1-8.3-4.1c-3.4 0-6.1 1.3-8.2 4s-3.2 6.7-3.2 11.7zm54.3 14.8c2.4 0 4.6-.7 6.4-2.2 1.8-1.5 2.8-3.3 3-5.6h6.5c-.1 2.3-.9 4.5-2.4 6.6s-3.4 3.7-5.8 5c-2.4 1.2-5 1.9-7.7 1.9-5.5 0-9.8-1.8-13-5.5s-4.8-8.6-4.8-15v-1.2c0-3.9.7-7.4 2.2-10.4 1.4-3 3.5-5.4 6.2-7.1 2.7-1.7 5.9-2.5 9.5-2.5 4.5 0 8.2 1.3 11.2 4s4.6 6.2 4.8 10.5H792c-.2-2.6-1.2-4.7-3-6.4s-4-2.5-6.5-2.5c-3.5 0-6.2 1.3-8.1 3.8-1.9 2.5-2.9 6.1-2.9 10.9v1.3c0 4.6 1 8.2 2.9 10.7 1.8 2.5 4.5 3.7 8 3.7zm47.1-5.8c0-1.9-.7-3.3-2.1-4.3-1.4-1-3.8-1.9-7.3-2.7-3.5-.7-6.2-1.6-8.3-2.7s-3.6-2.3-4.5-3.7c-1-1.4-1.5-3.1-1.5-5.1 0-3.3 1.4-6.1 4.2-8.3s6.3-3.4 10.7-3.4c4.6 0 8.2 1.2 11.1 3.5 2.8 2.4 4.2 5.4 4.2 9h-6.9c0-1.9-.8-3.5-2.4-4.9s-3.6-2-6-2c-2.5 0-4.5.5-5.9 1.6s-2.1 2.5-2.1 4.3c0 1.7.7 2.9 2 3.7s3.7 1.6 7.1 2.4c3.4.8 6.2 1.7 8.3 2.7 2.1 1.1 3.7 2.3 4.7 3.8s1.5 3.3 1.5 5.5c0 3.6-1.4 6.5-4.3 8.6-2.9 2.2-6.6 3.2-11.2 3.2-3.2 0-6.1-.6-8.5-1.7-2.5-1.1-4.4-2.7-5.8-4.8-1.4-2-2.1-4.2-2.1-6.6h6.9c.1 2.3 1 4.1 2.8 5.5 1.7 1.3 4 2 6.8 2 2.6 0 4.7-.5 6.3-1.6 1.5-.8 2.3-2.2 2.3-4z" fill="#015c98"/><path d="M112.3 122.7h-102c-1 0-1.9-.8-1.9-1.9v-8.6c0-1 .8-1.9 1.9-1.9h102c1 0 1.9.8 1.9 1.9v8.6c0 1-.8 1.9-1.9 1.9z" fill="#ed1c2b"/><path d="M144.2 96c-.4.9-1.5 2-3.1 2h-8.5c-2 0-3.1-1.7-2.3-3.4l41.3-88.5c.4-.8 1.6-1.5 2.3-1.5h1.3c.7 0 1.9.7 2.3 1.5l41.2 88.5c.8 1.7-.3 3.4-2.3 3.4h-8.5c-1.6 0-2.6-.8-3.1-2l-30.1-65.4h-.7L144.2 96zM26.1 6.7c.3-1 1.3-2 2.4-2h2.1c.8 0 2 .7 2.3 1.5l28.2 67.1h.5l28-67.1C90 5.3 91 4.7 92 4.7h2.1c1.1 0 2.1.9 2.4 2L113.2 95c.4 1.9-.5 3-2.4 3H102c-1.2 0-2.3-.9-2.6-1.9l-10-58.8H89L64.8 97.9c-.3.8-1.1 1.5-2.3 1.5h-2.4c-1.1 0-2-.7-2.3-1.5L33.4 37.4h-.5l-9.7 58.8c-.2.9-1.4 1.8-2.5 1.8H12c-1.9 0-2.8-1.2-2.6-3L26.1 6.7zm190.7 2.7c-.8-1.7.3-3.4 2.3-3.4h9.6c1.1 0 2 .8 2.3 1.5l29.6 65.1h.8L291 7.5c.3-.7 1.1-1.5 2.3-1.5h9.6c2 0 3.1 1.7 2.3 3.4l-41.3 88.5c-.4.8-1.2 1.5-2.3 1.5h-1.3c-1 0-1.9-.7-2.3-1.5L216.8 9.4zm113.1-.9c0-1.3 1.1-2.5 2.6-2.5h53.9c1.5 0 2.6 1.2 2.6 2.5v7.3c0 1.3-1.1 2.5-2.6 2.5h-42.6v26.8h36c1.3 0 2.6 1.2 2.6 2.5V55c0 1.5-1.2 2.5-2.6 2.5h-36v28.2h42.6c1.5 0 2.6 1.2 2.6 2.5v7.3c0 1.3-1.1 2.5-2.6 2.5h-53.9c-1.5 0-2.6-1.2-2.6-2.5v-87zM419.2 7c0-1.3 1.2-2.4 2.6-2.4h3.3l58.5 66h.1V8.5c0-1.3 1.1-2.5 2.6-2.5h8.6c1.3 0 2.6 1.2 2.6 2.5V97c0 1.3-1.2 2.4-2.6 2.4h-3.6L433 31.6h-.1v64c0 1.3-1.1 2.5-2.6 2.5h-8.5c-1.3 0-2.6-1.2-2.6-2.5V7zm113.3 1.5c0-1.3 1.2-2.5 2.6-2.5h8.9c1.3 0 2.6 1.2 2.6 2.5v87c0 1.3-1.2 2.5-2.6 2.5h-8.9c-1.3 0-2.6-1.2-2.6-2.5v-87zm98.9 52.3c11.7-4.6 19.9-14.6 19.9-26.7 0-15.6-13.2-28.2-29.4-28.2h-36.7c-1.5 0-2.6 1.2-2.6 2.5v87c0 1.3 1.1 2.5 2.6 2.5h8.7c1.3 0 2.6-1.2 2.6-2.5V62H617l17.9 34.8c.3.5 1.1 1.2 2.1 1.2h10.5c2.3 0 3.3-2.1 2.3-3.8l-18.4-33.4zm-34.5-10.1v-32h24c8.7 0 16.5 7.1 16.5 15.6 0 9-7.7 16.3-16.5 16.3h-24zM655.1 13V7h-2.3V6h5.8v1h-2.3v6h-1.2zm4.3 0V5.9h1.7l1.8 5.6 1.7-5.6h1.7V13h-1.1V7.1l-1.9 5.9h-1l-1.9-6v6h-1z" fill="#005c97"/></svg>