<svg version="1.1" id="Layer_1" xmlns="http://www.w3.org/2000/svg" x="0" y="0" viewBox="0 0 100 80" xml:space="preserve"><style>.st0{fill:#e63a29;stroke:#e63a29;stroke-miterlimit:10}</style><path class="st0" d="M51.4 65.8l8.2 3.9c.3.1.6.1.9 0l15.2-8.8c.4-.2.6-.7.5-1.1l-2.9-10.5c-.2-.7-1-1-1.6-.5L51.2 64.1c-.6.5-.5 1.4.2 1.7zm8.2 2.8l-6.1-2.9c-.7-.3-.8-1.3-.2-1.7l17.9-13.4c.6-.4 1.4-.1 1.6.5l2.2 8.2c.1.4-.1.9-.5 1.1l-14 8.1c-.3.2-.6.2-.9.1z"/><path d="M72.5 32.8H20.1c-.6 0-1-.5-1-1 0-.6.5-1 1-1h8l3.6-11.5c1.8-5.6 3.5-8.5 5.7-9.7 2.1-1.1 4.2-.4 6.6.4 1.9.6 4.1 1.3 6.6 1.3s4.7-.7 6.6-1.3c2.4-.8 4.5-1.5 6.6-.4 2.2 1.1 3.9 4 5.7 9.7l3.6 11.5h8c.6 0 1 .5 1 1 0 .6-.5 1-1 1h-8.6c.1 0 .1 0 0 0zm-42.2-2.1h40.8l-3.4-10.9c-1.6-4.9-3-7.6-4.6-8.4-1.3-.7-2.9-.2-5 .5-1.9.6-4.4 1.4-7.3 1.4-2.9 0-5.3-.8-7.3-1.4-2.2-.7-3.7-1.2-5-.5-1.6.8-3.1 3.5-4.6 8.4l-3.6 10.9zm31 18.2c-4.7 0-8.5-3.5-9-8h-3.1c-.5 4.5-4.4 8-9 8-5 0-9.1-4.1-9.1-9.1 0-.6.5-1 1-1h37.2c.6 0 1 .5 1 1 0 5.1-4 9.1-9 9.1zm-6.9-8c.5 3.4 3.4 5.9 6.9 5.9s6.4-2.6 6.9-5.9H54.4zm-21.2 0c.5 3.4 3.4 5.9 6.9 5.9s6.4-2.6 6.9-5.9H33.2z" fill="#44a5ab" stroke="#44a5ab" stroke-width=".5" stroke-miterlimit="10"/><path class="st0" d="M28.7 49.3l-2.9 10.5c-.1.4.1.9.5 1.1l15.2 8.8c.3.2.6.2.9 0l8.2-3.9c.7-.3.8-1.3.2-1.7L30.3 48.8c-.6-.5-1.4-.2-1.6.5zm-1.6 10l2.2-8.2c.2-.7 1-1 1.6-.5L48.8 64c.6.5.5 1.4-.2 1.7l-6.1 2.9c-.3.1-.6.1-.9 0l-14-8.1c-.4-.3-.6-.8-.5-1.2z"/></svg>