<svg xmlns="http://www.w3.org/2000/svg" viewBox="0 0 100 80"><circle cx="49.8" cy="40.2" r="16.2" fill="#fff"/><path d="M63.5 26.5c-1.5-1.5-3.3-2.8-5.3-3.8 4.6 9.5.6 20.9-8.9 25.5-5.3 2.5-11.4 2.5-16.6 0 .9 1.9 2.1 3.6 3.6 5.1l.2.2c7.6 7.3 19.7 7 27-.6 7-7.5 7-19.1 0-26.4z" fill="#6ebe4a"/><path d="M36.6 30.8c-2.3 0-4.2-1.9-4.2-4.2 0-1.1.4-2.2 1.2-3 4.4-4.4 10.3-6.8 16.5-6.8 2.3-.1 4.3 1.8 4.4 4.1s-1.8 4.3-4.1 4.4h-.3c-3.9 0-7.7 1.5-10.5 4.3-.8.7-1.9 1.2-3 1.2z" fill="#d541d8"/><path d="M50.8 16.8c2.3.4 3.8 2.6 3.4 4.9-.3 1.8-1.8 3.2-3.6 3.5 8 .3 14.3 6.8 14.3 14.8 0-2.3 1.9-4.2 4.2-4.2 2.3 0 4.2 1.9 4.2 4.2 0-12.5-10-22.8-22.5-23.2z" fill="#fbab18"/><path d="M69.1 35.8c-2.3 0-4.2 1.9-4.2 4.2 0 8-6.3 14.6-14.3 14.8 2.3.3 4 2.4 3.7 4.7-.2 1.8-1.6 3.3-3.5 3.6 12.5-.3 22.5-10.6 22.5-23.1 0-2.3-1.9-4.2-4.2-4.2z" fill="#005073"/><path d="M39.2 29.9c-1.8 1.4-4.5 1.1-6-.7-1.1-1.4-1.2-3.4-.2-5-8.3 8.9-8.3 22.7 0 31.6-1.3-1.9-.8-4.6 1.2-5.9 1.5-1 3.5-.9 5 .2-5.4-5.7-5.4-14.5 0-20.2z" fill="#ff3d67"/><path d="M50 63.3c-6.2 0-12.1-2.4-16.5-6.8-1.7-1.7-1.7-4.3 0-6 1.7-1.7 4.3-1.7 6 0 2.8 2.8 6.5 4.3 10.5 4.3 2.3-.1 4.3 1.8 4.4 4.1.1 2.3-1.8 4.3-4.1 4.4H50z" fill="#00bceb"/></svg>