<svg xmlns="http://www.w3.org/2000/svg" viewBox="0 0 100 80"><g stroke-width="5" stroke-miterlimit="10"><path d="M-1028.8-111.1c0-13.4-3-26.4-9-38.7-5.7-11.8-13.9-22.3-24.4-31.4-10.4-9-22.5-16.1-35.9-21-13.9-5.1-28.6-7.7-43.8-7.7-15.2 0-29.9 2.6-43.8 7.7-13.4 4.9-25.5 12-35.9 21-10.4 9.1-18.6 19.6-24.4 31.4-6 12.2-9 25.2-9 38.7 0 16.3 4.6 32.5 13.4 46.7 8 13 19.3 24.3 32.9 33l-2.7 55.9c-.1 1.8.9 3.5 2.5 4.4.7.4 1.5.6 2.3.6 1 0 1.9-.3 2.7-.9l59.2-41.1h2.6c15.2 0 29.9-2.6 43.8-7.7 13.4-4.9 25.5-12 35.9-21 10.4-9.1 18.6-19.6 24.4-31.4 6.2-12.1 9.2-25.1 9.2-38.5h0zm-113 89.1c-1.3 0-2.6 0-3.9-.1-1 0-2 .3-2.9.9l-52.5 36.4 2.4-48.9c.1-1.8-.8-3.4-2.3-4.3-27.6-16.7-44.1-44-44.1-73 0-49.1 46.4-89.1 103.4-89.1s103.4 40 103.4 89.1c-.1 49-46.5 89-103.5 89z" fill="#1fa4da" stroke="#1fa4da"/><path d="M-948.4-160.6c-4.7-9.7-11.4-18.3-20-25.7-17.5-15.1-40.6-23.5-65.2-23.5-14.3 0-28.2 2.8-40.7 8.2 3.4 2 6.8 4.2 10 6.5 9.5-3.3 19.9-5.1 30.7-5.1 45.7 0 83 32 83 71.4 0 23.2-13.2 45.1-35.4 58.5-1.5.9-2.4 2.6-2.3 4.3l1.8 37.9-41.1-28.5c-.8-.6-1.8-.9-2.7-.9h-.2c-1.1 0-2.1.1-3.1.1h-1.6c-2.1 3.2-4.3 6.3-6.7 9.3 2.7.2 5.5.3 8.3.3h1.8l47.8 33.1c.8.6 1.8.9 2.7.9.8 0 1.6-.2 2.3-.6 1.6-.9 2.6-2.6 2.5-4.4l-2.2-44.8c11-7.1 20.1-16.3 26.5-26.8 7.2-11.7 11-25 11-38.4.2-11.1-2.3-21.8-7.2-31.8h0z" fill="#e63a29" stroke="#e63a29"/></g><path d="M46 45.8c-1.8 0-3.2 1.4-3.2 3.2 0 1.2.7 2.3 1.7 2.8v3.5h2.9v-3.5c1-.5 1.7-1.6 1.7-2.8.1-1.8-1.3-3.2-3.1-3.2zm11.2 0c-1.8 0-3.2 1.4-3.2 3.2 0 1.2.7 2.3 1.7 2.8v3.5h2.9v-3.5c1-.5 1.7-1.6 1.7-2.8.1-1.8-1.3-3.2-3.1-3.2z" fill="#e63a29"/><path d="M67.1 33.4H40v-7.8c0-5.6 3.8-10.2 8.5-10.2h6.2c4.3 0 7.9 3.9 8.4 9h2.8c-.5-6.6-5.4-11.8-11.2-11.8h-6.2c-6.2 0-11.3 5.8-11.3 13v7.8h-1c-2.5 0-4.5 2-4.5 4.5v23.2c0 2.5 2 4.5 4.5 4.5H67c2.5 0 4.5-2 4.5-4.5V37.9c.1-2.5-1.9-4.5-4.4-4.5zm1.7 27.8c0 .9-.7 1.7-1.7 1.7H36.2c-.9 0-1.7-.7-1.7-1.7V37.9c0-.9.7-1.7 1.7-1.7H67c.9 0 1.7.7 1.7 1.7 0 0 0 23.3.1 23.3z" fill="#44a5ab"/></svg>