<svg data-name="Layer 1" xmlns="http://www.w3.org/2000/svg" viewBox="0 0 654.38 92.67"><path d="M3.21 11.55c0-2.11 0-3.74.13-4.88a3.87 3.87 0 0 1 .93-2.51 3.79 3.79 0 0 1 2.5-.92c1.15-.09 2.78-.14 4.89-.14h41.18q9.9 0 15.25.4c3.56.26 6.16 1.17 7.79 2.71s2.59 3.93 2.9 7.19.46 7.92.46 14-.15 10.74-.46 14-1.28 5.66-2.9 7.2-4.23 2.44-7.79 2.7-8.6.4-15.12.4l24.69 24.66c1.14 1.15 2 2 2.57 2.64a2.78 2.78 0 0 1 .86 1.85 3.74 3.74 0 0 1-1 1.92 24.89 24.89 0 0 1-2.38 2.57A29.8 29.8 0 0 1 75 87.65a4.15 4.15 0 0 1-1.85 1 2.89 2.89 0 0 1-1.78-.86c-.66-.57-1.52-1.38-2.57-2.44L35.15 51.68H15.88v29.57c0 1.58 0 2.79-.13 3.63a3 3 0 0 1-.75 1.85 3 3 0 0 1-1.84.72c-.84.09-2 .13-3.63.13s-2.8 0-3.63-.13a3 3 0 0 1-1.85-.72 3 3 0 0 1-.73-1.85c-.09-.84-.13-2-.13-3.63zM52.84 39q5.14 0 7.92-.2a6.69 6.69 0 0 0 4-1.32 5.26 5.26 0 0 0 1.52-3.43 65 65 0 0 0 .26-6.67 64.93 64.93 0 0 0-.26-6.66 5.29 5.29 0 0 0-1.52-3.44 6.82 6.82 0 0 0-4-1.32q-2.77-.2-7.92-.19h-37V39zm93.99 35.91c1.58 0 2.79 0 3.62.13a2.5 2.5 0 0 1 2.55 2.58c.09.83.13 2 .13 3.63s0 2.79-.13 3.63a2.48 2.48 0 0 1-2.58 2.57c-.83.09-2 .13-3.62.13h-23.21q-8.45 0-14.19-.2a47.33 47.33 0 0 1-9.5-1.12 12 12 0 0 1-5.81-3 12.16 12.16 0 0 1-3-5.8A47.34 47.34 0 0 1 90 68q-.19-5.74-.2-14.19T90 39.6a47.23 47.23 0 0 1 1.12-9.5 12.15 12.15 0 0 1 3-5.81 12.15 12.15 0 0 1 5.81-3 47.33 47.33 0 0 1 9.5-1.12q5.75-.19 14.19-.2t14.19.2a47.34 47.34 0 0 1 9.51 1.12 12.51 12.51 0 0 1 5.81 2.9 11.61 11.61 0 0 1 3 5.48 41.69 41.69 0 0 1 1.12 8.85q.19 5.34.2 13.13c0 2.11 0 3.74-.14 4.88a3.19 3.19 0 0 1-3.49 3.47c-1.14.08-2.77.13-4.88.13h-46.47q0 5.53.27 8.51a6.81 6.81 0 0 0 1.65 4.36 6.87 6.87 0 0 0 4.35 1.65q3 .25 8.52.26zm-2.12-27.45q0-5.55-.26-8.52a6.87 6.87 0 0 0-1.65-4.35 6.81 6.81 0 0 0-4.36-1.65q-3-.27-8.51-.27h-12.67q-5.55 0-8.52.27a6.76 6.76 0 0 0-4.35 1.65 6.76 6.76 0 0 0-1.65 4.35q-.27 3-.27 8.52zm66.53 27.45c1.85 0 3.25 0 4.22-.13a3.39 3.39 0 0 0 2.18-.86 3.44 3.44 0 0 0 .86-2.18c.09-1 .13-2.37.13-4.22s0-3.26-.13-4.22a3.44 3.44 0 0 0-.86-2.18 3.39 3.39 0 0 0-2.18-.86c-1-.09-2.37-.13-4.22-.13H188q-7.53 0-11.55-.33t-5.94-2.25q-1.92-1.9-2.25-5.94t-.33-11.55q0-7.52.33-11.55t2.25-5.94q1.9-1.91 5.94-2.24T188 20h34.85c1.58 0 2.79 0 3.63.13a3 3 0 0 1 1.84.73 3 3 0 0 1 .73 1.85c.09.83.13 2 .13 3.63s0 2.79-.13 3.63a2.5 2.5 0 0 1-2.57 2.57c-.84.09-2.05.13-3.63.13H188c-1.85 0-3.26 0-4.23.13a3.41 3.41 0 0 0-2.17.86 3.36 3.36 0 0 0-.86 2.18c-.09 1-.13 2.38-.13 4.22s0 3.26.13 4.23a2.93 2.93 0 0 0 3 3c1 .09 2.38.14 4.23.14h23.23c5 0 8.86.11 11.55.33s4.66 1 5.94 2.24 2 3.26 2.24 5.94.33 6.53.33 11.55-.11 8.87-.33 11.55-1 4.66-2.24 5.94-3.26 2-5.94 2.24-6.53.33-11.55.33h-37c-1.58 0-2.79 0-3.63-.13a3 3 0 0 1-1.85-.72 3 3 0 0 1-.72-1.85 36.3 36.3 0 0 1-.14-3.63 36 36 0 0 1 .14-3.63 2.48 2.48 0 0 1 2.65-2.59c.84-.08 2-.13 3.63-.13zm45.41-42.24H244c-1.59 0-2.8 0-3.63-.13a3 3 0 0 1-1.85-.73 3 3 0 0 1-.73-1.84c-.09-.84-.13-2-.13-3.63s0-2.8.13-3.63a3 3 0 0 1 .73-1.85 3 3 0 0 1 1.85-.73c.83-.09 2-.13 3.63-.13h12.67V9.44c0-1.58 0-2.79.13-3.63a3 3 0 0 1 .71-1.81 3 3 0 0 1 1.85-.72 47.13 47.13 0 0 1 7.26 0 3 3 0 0 1 1.84.72 3 3 0 0 1 .73 1.85c.09.84.13 2.05.13 3.63V20H282c1.59 0 2.8 0 3.63.13a3 3 0 0 1 1.85.73 3 3 0 0 1 .73 1.85c.08.83.13 2 .13 3.63s-.05 2.79-.13 3.63a2.5 2.5 0 0 1-2.58 2.57c-.83.09-2 .13-3.63.13h-12.68v48.58c0 1.58 0 2.79-.13 3.63a2.48 2.48 0 0 1-2.57 2.57c-.84.09-2.05.13-3.63.13s-2.8 0-3.63-.13a2.48 2.48 0 0 1-2.58-2.57c-.09-.84-.13-2-.13-3.63zm92.93 42.24c1.58 0 2.79 0 3.63.13a3 3 0 0 1 1.84.73 3 3 0 0 1 .73 1.85c.09.83.13 2 .13 3.63s0 2.79-.13 3.63a2.48 2.48 0 0 1-2.57 2.57c-.84.09-2 .13-3.63.13h-19q-8.44 0-14.19-.2a47.34 47.34 0 0 1-9.51-1.12 10.61 10.61 0 0 1-8.77-8.77A48 48 0 0 1 297 68q-.2-5.74-.19-14.19T297 39.6a47.89 47.89 0 0 1 1.13-9.5 12 12 0 0 1 3-5.81 12.16 12.16 0 0 1 5.8-3 47.34 47.34 0 0 1 9.51-1.12q5.75-.19 14.19-.2h19c1.58 0 2.79 0 3.63.13a3 3 0 0 1 1.84.73 3 3 0 0 1 .73 1.85c.09.83.13 2 .13 3.63s0 2.79-.13 3.63a2.5 2.5 0 0 1-2.57 2.57c-.84.09-2 .13-3.63.13h-19q-7.92 0-12.21.33t-6.27 2.31q-2 2-2.31 6.27t-.33 12.21q0 7.92.33 12.21t2.31 6.27q2 2 6.27 2.31t12.21.33zM400.26 20c5.63 0 10.37.07 14.19.2a47.34 47.34 0 0 1 9.55 1.12 12.2 12.2 0 0 1 5.81 3 12.15 12.15 0 0 1 3 5.81 48 48 0 0 1 1.12 9.5q.19 5.74.2 14.19T433.86 68a48.08 48.08 0 0 1-1.12 9.51 12.16 12.16 0 0 1-3 5.8 12 12 0 0 1-5.81 3 47.34 47.34 0 0 1-9.51 1.12c-3.82.14-8.56.2-14.19.2s-10.36-.06-14.19-.2a47.33 47.33 0 0 1-9.5-1.12 12 12 0 0 1-5.81-3 12.16 12.16 0 0 1-3-5.8 48.08 48.08 0 0 1-1.06-9.51q-.19-5.74-.2-14.19t.2-14.19a48 48 0 0 1 1.12-9.5 12.15 12.15 0 0 1 3-5.81 12.2 12.2 0 0 1 5.81-3 47.33 47.33 0 0 1 9.5-1.12q5.71-.19 14.16-.19zm21.13 33.79c0-5.28-.12-9.35-.33-12.21s-1-4.95-2.32-6.27-3.41-2.09-6.27-2.31-6.93-.33-12.21-.33-9.35.11-12.2.33-5 1-6.28 2.31-2.09 3.41-2.31 6.27-.33 6.93-.33 12.21.11 9.35.33 12.21 1 5 2.31 6.27 3.41 2.09 6.28 2.31 6.92.33 12.2.33 9.35-.11 12.21-.33 5-1 6.27-2.31 2.09-3.41 2.32-6.27.33-6.93.33-12.21zm23.75-25.34c0-2.11.05-3.74.14-4.89a3.79 3.79 0 0 1 .92-2.5 3.87 3.87 0 0 1 2.51-.93c1.14-.09 2.77-.13 4.88-.13h59.14q7.39 0 12.41.13a37.94 37.94 0 0 1 8.31 1 10.83 10.83 0 0 1 5.08 2.64 10.88 10.88 0 0 1 2.64 5.08 37.16 37.16 0 0 1 1 8.39q.14 5.07.14 12.34v31.67a36.3 36.3 0 0 1-.14 3.63 3 3 0 0 1-.72 1.85 3 3 0 0 1-1.85.72c-.84.09-2.05.13-3.63.13s-2.79 0-3.63-.13a3 3 0 0 1-1.85-.72 3 3 0 0 1-.72-1.85 36.3 36.3 0 0 1-.14-3.63V49.57c0-4.23-.08-7.48-.26-9.77a7.76 7.76 0 0 0-1.85-5 7.73 7.73 0 0 0-5-1.84q-3.43-.27-9.77-.27h-12.69v48.56a36.3 36.3 0 0 1-.14 3.63 3 3 0 0 1-.72 1.85 3 3 0 0 1-1.85.72c-.84.09-2.05.13-3.63.13s-2.79 0-3.63-.13a3 3 0 0 1-1.85-.72 3 3 0 0 1-.72-1.85 36.3 36.3 0 0 1-.14-3.63V32.67h-29.56v48.58a36.3 36.3 0 0 1-.14 3.63 3 3 0 0 1-.72 1.85 3 3 0 0 1-1.85.72c-.84.09-2.05.13-3.63.13s-2.79 0-3.63-.13a3 3 0 0 1-1.85-.72 3 3 0 0 1-.72-1.85 36.3 36.3 0 0 1-.14-3.63zm108.24 0c0-2.11 0-3.74.13-4.89a3.84 3.84 0 0 1 .93-2.5 3.87 3.87 0 0 1 2.51-.93c1.14-.09 2.77-.13 4.88-.13H621q7.38 0 12.4.13a38 38 0 0 1 8.32 1 10.88 10.88 0 0 1 5.08 2.64 10.88 10.88 0 0 1 2.64 5.08 38.34 38.34 0 0 1 1 8.39q.14 5.07.13 12.34v31.67c0 1.58 0 2.79-.13 3.63a2.47 2.47 0 0 1-2.57 2.57c-.84.09-2.05.13-3.63.13s-2.8 0-3.63-.13a3 3 0 0 1-1.85-.72 3 3 0 0 1-.73-1.85c-.08-.84-.13-2-.13-3.63V49.57c0-4.23-.09-7.48-.26-9.77a7.76 7.76 0 0 0-1.85-5 7.76 7.76 0 0 0-5-1.84c-2.28-.18-5.54-.27-9.76-.27h-12.74v48.56c0 1.58 0 2.79-.13 3.63a2.47 2.47 0 0 1-2.57 2.57c-.84.09-2.05.13-3.63.13s-2.8 0-3.63-.13a3 3 0 0 1-1.85-.72 3 3 0 0 1-.73-1.85c-.08-.84-.13-2-.13-3.63V32.67h-29.56v48.58a36.3 36.3 0 0 1-.14 3.63 2.47 2.47 0 0 1-2.57 2.57c-.84.09-2.05.13-3.63.13s-2.8 0-3.63-.13a3 3 0 0 1-1.85-.72 3 3 0 0 1-.73-1.85c-.08-.84-.13-2-.13-3.63z" fill="#fff"/></svg>