<svg version="1.1" id="Layer_1" xmlns="http://www.w3.org/2000/svg" x="0" y="0" viewBox="0 0 108 80" xml:space="preserve"><style>.st0{fill:#fff}</style><path class="st0" d="M56.2 39.8c0-1.2-1-2.1-2.2-2.1-1.2 0-2.2 1-2.2 2.1 0 .7.4 1.3.9 1.7l-.6 4.6h3.7l-.6-4.6c.7-.4 1-1 1-1.7zM54 26.2h-.2c-1.5 0-2.9.8-3.7 2.2-.7 1.1-.6 2.6-.6 4.5v.3h8.9v-.1c0-2.1.1-3.7-.7-4.9-.8-1.2-2.2-2-3.7-2z"/><path class="st0" d="M70.1 16.4c-5.9 0-11.3-.9-16.1-2.8-4.8 1.8-10.2 2.8-16.1 2.8-1.9 0-3.8-.1-5.6-.3v24.1c0 6.2 3.3 12.3 9.9 18 4.4 3.8 9.1 6.5 11.9 7.9 2.8-1.4 7.5-4.1 11.9-7.9 6.6-5.7 9.9-11.8 9.9-18V16.1c-2 .2-3.9.3-5.8.3zm-5.7 33.4c0 .4-.3.7-.7.7H44.3c-.4 0-.7-.3-.7-.7v-16c0-.4.3-.7.7-.7h2c0-.5-.1-2.7 0-3.3.1-1.8 1.1-3.7 2.5-4.9C50.3 23.7 52 23 54 23h.7c3.7.3 6.7 3.2 7 6.7.1.7 0 2.9 0 3.4h2.1c.4 0 .6.3.6.7v16z"/><path class="st0" d="M79.9 9.4c-4.4.8-15.5 2.3-25.2-2.1-.4-.2-.9-.2-1.3 0-9.7 4.3-20.8 2.9-25.2 2.1-1-.2-1.9.6-1.9 1.6v29.2c0 19 22.9 30.4 27.1 32.4.4.2.9.2 1.4 0 4.3-2 27.1-13.3 27.1-32.4V11c-.1-1-1-1.7-2-1.6zm-1.3 30.9c0 7.1-3.7 13.9-10.9 20.2-5 4.4-10.4 7.3-13.1 8.7l-.6.2-.6-.3c-2.8-1.4-8.1-4.3-13.1-8.7-7.3-6.3-10.9-13.1-10.9-20.1V12.9l1.6.2c2.3.3 4.6.4 6.9.4 5.8 0 11-.9 15.6-2.8l.5-.2.5.2c4.5 1.8 9.8 2.8 15.6 2.8 2.3 0 4.6-.1 6.9-.4l1.6-.2v27.4z"/><path class="st0" d="M40.3 20.7H67V52H40.3z"/><path d="M62.2 34.6H46c-1.8 0-3.2 1.4-3.2 3.2v9.9c0 1.7 1.4 3.2 3.2 3.2h16.1c1.8 0 3.2-1.4 3.2-3.2v-9.9c0-1.8-1.4-3.2-3.1-3.2zm-15.4 3.5c-.1 0-.2.1-.2.2v9c0 .4-.3.8-.8.8-.4 0-.8-.3-.8-.8v-9c0-1 .8-1.7 1.7-1.7.4 0 .8.3.8.8 0 .4-.3.7-.7.7zm8.6 4.6v2.7c0 .7-.6 1.3-1.3 1.3-.7 0-1.3-.6-1.3-1.3v-2.7c-.5-.4-.9-1.1-.9-1.8 0-1.2 1-2.2 2.2-2.2 1.2 0 2.2 1 2.2 2.2 0 .8-.3 1.4-.9 1.8zm-5.7-12.8c0-2.4 2-4.4 4.4-4.4 2.4 0 4.4 2 4.4 4.4v3.5h3.6v-3.5c0-4.4-3.6-8-8-8s-8 3.6-8 8v3.5h3.6v-3.5z" fill="#44a5ab"/></svg>