<svg version="1.1" id="Layer_1" xmlns="http://www.w3.org/2000/svg" x="0" y="0" viewBox="0 0 100 80" xml:space="preserve"><style>.st0{fill:none;stroke:#005c97;stroke-width:2.5;stroke-miterlimit:10}</style><path class="st0" d="M62.5 31.9v-9.3c0-5.7-4.6-10.3-10.3-10.3s-10.3 4.6-10.3 10.3v9.3"/><path class="st0" d="M35 31.9v-9.3c0-9.5 7.7-17.2 17.2-17.2s17.2 7.7 17.2 17.2v9.3M51.7 63.2c-1.4 0-2.6-1.1-2.6-2.6v-6c0-.2-.1-.4-.3-.5-2.3-1.5-3.5-4.6-2.2-7.5.8-1.7 2.3-3 4.1-3.4 3.9-.8 7.3 2.1 7.3 5.8 0 2-1 3.9-2.7 5-.2.1-.3.3-.3.5v6c0 1.4-1.1 2.6-2.6 2.6h-.7v.1z"/><path d="M25.7 39.1s-6.1 4.7-11.1 4.7v11.9c0 2.5 1 4.7 2.7 6 1.8 1.3 7.1 4.8 7.3 5l1.1.7 1.1-.7c.2-.1 5.5-3.6 7.3-5 1.7-1.3 2.7-3.5 2.7-6V43.8c-5 0-11.1-4.7-11.1-4.7z" fill="#da1a32"/><path d="M21.2 52.6l3.7 3.7 6-6.1" fill="none" stroke="#fff" stroke-width="2" stroke-miterlimit="10"/><path class="st0" d="M25.7 37.9c0-3.3 2.7-6 6-6h40.9c3.3 0 6 2.7 6 6v30.7c0 3.3-2.7 6-6 6H31.7c-3.3 0-6-2.7-6-6"/></svg>