<svg xmlns="http://www.w3.org/2000/svg" viewBox="0 0 31.3 26.1"><path d="M25.4 7.5L18.8 12l6.5 4.8c0 .2-.3.7-.6.8l-6.9-5-1.4.9c-.2.1-.4.1-.5 0l-1.4-.9-7.1 5.1c-.2-.1-.6-.4-.7-.7l6.9-4.9-7-4.4c0-.4.2-.8.4-.9l7.6 4.8c.3.2.4.3.5.3l1.1.7 8.8-6 .4.9zm1 9V7.7c0-1.4-1.1-2.5-2.5-2.5H8.2c-1.4 0-2.5 1.1-2.5 2.5v8.7c0 1.4 1.1 2.5 2.5 2.5h15.7c1.4 0 2.5-1.1 2.5-2.4zM23.9 6.2c.8 0 1.5.7 1.5 1.5v8.8c0 .7-.7 1.4-1.5 1.4H8.2c-.8 0-1.5-.7-1.5-1.5V7.7c0-.8.7-1.5 1.5-1.5h15.7zm1.1.4c.4.4.4.9.4.9" fill="#7d60a8"/></svg>