<svg version="1.1" id="Layer_1" xmlns="http://www.w3.org/2000/svg" x="0" y="0" viewBox="0 0 31.3 26.1" xml:space="preserve"><style>.st0,.st1{fill:none;stroke:#000;stroke-width:.25;stroke-miterlimit:10}.st1{fill:#58595b;stroke:#58595b}</style><path class="st0" d="M18 18.4c0-3 2.2-3 2.2-6.2 0-2.7-2.2-4.8-4.8-4.9-2.7 0-4.8 2.2-4.8 4.9 0 3.2 2.2 3.2 2.2 6.2"/><path class="st1" d="M18 18.8c-.2 0-.4-.2-.4-.4 0-1.6.6-2.4 1.2-3.2.6-.8 1.1-1.5 1.1-3 0-2.5-2-4.5-4.5-4.5s-4.5 2-4.5 4.5c0 1.5.5 2.2 1.1 3 .6.8 1.2 1.6 1.2 3.2 0 .2-.2.4-.4.4s-.4-.2-.4-.4c0-1.3-.5-2-1-2.7-.6-.8-1.2-1.7-1.2-3.4 0-2.7 2.1-5 4.8-5.2h.9c2.6.3 4.7 2.5 4.7 5.2 0 1.7-.6 2.6-1.2 3.4-.5.8-1 1.4-1 2.7 0 .2-.2.4-.4.4z"/><path class="st0" d="M15.4 9c-1.9 0-3.4 1.5-3.4 3.4"/><path class="st1" d="M12 12.8c-.2 0-.4-.2-.4-.4 0-2.1 1.7-3.8 3.8-3.8.2 0 .4.2.4.4s-.2.4-.4.4c-1.7 0-3 1.4-3 3 0 .2-.2.4-.4.4zm6.1 7.5h-5.4c-.2 0-.4-.2-.4-.4s.2-.4.4-.4h5.4c.2 0 .4.2.4.4 0 .3-.2.4-.4.4zm-.7 1.5h-4c-.2 0-.4-.2-.4-.4s.2-.4.4-.4h4c.2 0 .4.2.4.4-.1.2-.2.4-.4.4zm-.9 1.3h-2.3c-.2 0-.4-.2-.4-.4s.2-.4.4-.4h2.3c.2 0 .4.2.4.4s-.2.4-.4.4zm8.8-10.6h-3c-.2 0-.4-.2-.4-.4s.2-.4.4-.4h3c.2 0 .4.2.4.4-.1.2-.2.4-.4.4zM21 7.7c-.1 0-.2 0-.3-.1-.1-.1-.1-.4 0-.5L22.9 5c.1-.1.4-.1.5 0 .1.1.1.4 0 .5l-2.1 2.1c-.1 0-.2.1-.3.1zm2.1 11.7c-.1 0-.2 0-.3-.1l-2.1-2.1c-.1-.1-.1-.4 0-.5.1-.1.4-.1.5 0l2.1 2.1c.1.1.1.4 0 .5 0 0-.1.1-.2.1zM8.4 12.5h-3c-.2 0-.4-.2-.4-.4s.2-.4.4-.4h3c.2 0 .4.2.4.4-.1.2-.2.4-.4.4zm6.9-7.2c-.2 0-.4-.2-.4-.4v-3c0-.2.2-.4.4-.4s.4.2.4.4v3c0 .2-.2.4-.4.4zM9.6 7.7c-.1 0-.2 0-.3-.1l-2-2.1c-.2-.2-.2-.4 0-.5.1-.1.4-.1.5 0l2.1 2c.1.1.1.4 0 .5-.1.1-.2.2-.3.2zm-2 11.7c-.1 0-.2 0-.3-.1-.1-.1-.1-.4 0-.5l2.1-2.1c.1-.1.4-.1.5 0 .1.1.1.4 0 .5l-2.1 2.1c-.1 0-.2.1-.2.1z"/></svg>