<svg version="1.1" id="Layer_1" xmlns="http://www.w3.org/2000/svg" x="0" y="0" viewBox="0 0 100 80" xml:space="preserve"><style>.st0{fill:#fff}</style><path class="st0" d="M57.7 57.6c0-8.6 6.4-8.6 6.4-17.8 0-7.7-6.3-14-14-14.1-7.7 0-14 6.3-14 14.1 0 9.2 6.4 9.2 6.4 17.8"/><path class="st0" d="M57.7 58.6c-.6 0-1.1-.5-1.1-1.1 0-4.6 1.7-6.9 3.3-9.2 1.6-2.2 3.1-4.3 3.1-8.6 0-7.1-5.8-12.9-12.9-13-7.1 0-12.9 5.9-12.9 13 0 4.3 1.5 6.4 3.1 8.6 1.6 2.3 3.3 4.6 3.3 9.2 0 .6-.5 1.1-1.1 1.1s-1.1-.5-1.1-1.1c0-3.9-1.4-5.7-2.9-7.9-1.6-2.3-3.5-4.8-3.5-9.9 0-7.9 6.1-14.4 13.8-15.1v-.1h2.8v.1c7.6.8 13.6 7.2 13.6 15.1 0 5-1.9 7.6-3.5 9.9-1.6 2.2-2.9 4-2.9 7.9-.1.6-.5 1.1-1.1 1.1z"/><path d="M50.1 30.5c-5.4 0-9.8 4.4-9.8 9.8" fill="none"/><path d="M40.3 41.4c-.6 0-1.1-.5-1.1-1.1 0-6 4.9-10.9 10.8-10.9.6 0 1.1.5 1.1 1.1s-.5 1.1-1.1 1.1c-4.8 0-8.7 4-8.7 8.8.1.5-.4 1-1 1z" fill="#44a5ab"/><path class="st0" d="M57.9 63.2H42.4c-.6 0-1.1-.5-1.1-1.1s.5-1.1 1.1-1.1h15.5c.6 0 1.1.5 1.1 1.1s-.5 1.1-1.1 1.1zm-2 4.2H44.5c-.6 0-1.1-.5-1.1-1.1s.5-1.1 1.1-1.1h11.4c.6 0 1.1.5 1.1 1.1s-.5 1.1-1.1 1.1zm-2.4 3.7h-6.6c-.6 0-1.1-.5-1.1-1.1s.5-1.1 1.1-1.1h6.6c.6 0 1.1.5 1.1 1.1-.1.7-.6 1.1-1.1 1.1zm25.2-30.6h-8.6c-.6 0-1.1-.5-1.1-1.1s.5-1.1 1.1-1.1h8.6c.6 0 1.1.5 1.1 1.1s-.5 1.1-1.1 1.1zM66.4 26.6c-.3 0-.5-.1-.8-.3-.4-.4-.4-1.1 0-1.5l6.1-6.1c.4-.4 1.1-.4 1.5 0s.4 1.1 0 1.5l-6.1 6.1c-.1.2-.4.3-.7.3zm6.1 33.8c-.3 0-.5-.1-.8-.3l-6-6.1c-.4-.4-.4-1.1 0-1.5s1.1-.4 1.5 0l6.1 6.1c.4.4.4 1.1 0 1.5-.3.2-.5.3-.8.3zM29.9 40.5h-8.6c-.6 0-1.1-.5-1.1-1.1s.5-1.1 1.1-1.1h8.6c.6 0 1.1.5 1.1 1.1-.1.6-.5 1.1-1.1 1.1zM50 19.6c-.6 0-1.1-.5-1.1-1.1V9.9c0-.6.5-1.1 1.1-1.1s1.1.5 1.1 1.1v8.6c-.1.6-.5 1.1-1.1 1.1zm-16.4 7c-.3 0-.5-.1-.8-.3l-6.1-6.1c-.4-.4-.4-1.1 0-1.5s1.1-.4 1.5 0l6.1 6.1c.4.4.4 1.1 0 1.5-.2.2-.5.3-.7.3zm-6.1 33.8c-.3 0-.5-.1-.8-.3-.4-.4-.4-1.1 0-1.5l6.1-6.1c.4-.4 1.1-.4 1.5 0s.4 1.1 0 1.5l-6.1 6.1c-.1.2-.4.3-.7.3zm15-4.1h15.4v2.3H42.5v-2.3z"/></svg>