<svg version="1.1" id="Layer_1" xmlns="http://www.w3.org/2000/svg" x="0" y="0" viewBox="0 0 100 80" xml:space="preserve"><style>.st0{fill:#fff}</style><path class="st0" d="M70.2 37.4c-.5-10.7-9.3-19.2-20.1-19.2S30.5 26.7 30 37.3c-2.3.8-3.8 2.8-3.8 8.3 0 8.5 3.5 8.6 8.1 9.1.5.1 1-.4 1-.9V37.4c0-.3-.2-.6-.4-.8C35.7 29 42.2 23 50.1 23c7.9 0 14.3 6 15.2 13.7-.3.1-.6.5-.6.9V54c0 .6.5 1 1 .9 4.6-.5 8.1-.6 8.1-9.1.1-5.5-1.4-7.5-3.6-8.4z"/><path class="st0" d="M55.3 63.6c-.3 0-.6-.3-.6-.6s.3-.6.6-.6c6.1 0 11-3.5 11-7.7 0-.3.3-.6.6-.6s.6.3.6.6c0 2.4-1.3 4.7-3.7 6.4-2.2 1.6-5.3 2.5-8.5 2.5z"/><path class="st0" d="M53.3 65h-2.5c-1.1 0-2-.9-2-2s.9-2 2-2h2.5c1.1 0 2 .9 2 2s-.9 2-2 2zm14-9.8h-.8c-.5 0-.9-.4-.9-.9h2.7c-.1.5-.5.9-1 .9z"/></svg>