<svg id="Layer_1" data-name="Layer 1" xmlns="http://www.w3.org/2000/svg" viewBox="0 0 3947.36 685.48"><defs><style>.cls-1{fill:#fff}</style></defs><path class="cls-1" d="M3833.59 614.21a75.91 75.91 0 1 1-75.91-75.92 75.9 75.9 0 0 1 75.91 75.92z" transform="translate(-193.64 -209.57)"/><path class="cls-1" d="M3917.08 735.63a64.53 64.53 0 1 1-64.51-64.52 64.51 64.51 0 0 1 64.51 64.52zm0-242.89a64.53 64.53 0 1 1-64.51-64.52 64.51 64.51 0 0 1 64.51 64.52zm91.09 121.47a64.52 64.52 0 1 1-64.54-64.55 64.54 64.54 0 0 1 64.54 64.55zm-17.73-227.73a53.13 53.13 0 1 1-53.13-53.12 53.13 53.13 0 0 1 53.13 53.12zM4141 614.21a53.14 53.14 0 1 1-53.14-53.15 53.12 53.12 0 0 1 53.14 53.15zm-150.56 227.7a53.13 53.13 0 1 1-53.13-53.14 53.11 53.11 0 0 1 53.13 53.14zM324.84 472h-87.47q-16.4 0-25.05-.92c-5.78-.59-10-2.27-12.76-5s-4.41-7-5-12.75-.91-14.12-.91-25.06.3-19.27.91-25.05 2.28-10 5-12.76 7-4.39 12.76-5 14.12-.91 25.05-.91h87.47v-72.94q0-16.41.91-25.06c.59-5.76 2.27-10 5-12.75s7-4.4 12.75-5 14.12-.92 25.06-.92 19.27.32 25.05.92 10 2.27 12.76 5 4.4 7 5 12.75.91 14.12.91 25.06v72.88h87.46c10.93 0 19.28.32 25.06.91s10 2.28 12.75 5 4.4 7 5 12.76.91 14.12.91 25.05-.31 19.29-.91 25.06-2.28 10-5 12.75-7 4.42-12.75 5-14.13.92-25.06.92H412.3v335.29q0 16.39-.91 25.06t-5 12.75c-2.74 2.73-7 4.41-12.76 5s-14.12.91-25.05.91-19.29-.3-25.06-.91-10-2.28-12.75-5-4.42-7-5-12.75-.91-14.13-.91-25.06zm670.54 291.5q16.39 0 25 .91t12.76 5c2.73 2.73 4.4 7 5 12.75s.91 14.13.91 25.06-.31 19.29-.91 25.06-2.28 10-5 12.75-7 4.41-12.76 5-14.12.91-25 .91H835q-58.32 0-97.94-1.37t-65.6-7.74q-26-6.36-40.09-20.5t-20.5-40.08q-6.37-26-7.74-65.6t-1.37-97.94q0-58.31 1.37-97.94t7.74-65.6q6.38-26 20.5-40.09t40.09-20.5q26-6.36 65.6-7.74t97.94-1.35q58.29 0 97.94 1.37t65.6 7.74q26 6.39 40.08 20t20.5 37.81q6.36 24.15 7.75 61t1.36 90.65q0 21.87-.91 33.71t-6.32 17.4c-3.64 3.64-9.42 5.78-17.31 6.38s-19.13.91-33.71.91H689.26q0 38.26 1.82 58.76t11.39 30.07q9.56 9.56 30.06 11.39t58.77 1.82zM980.8 574q0-38.28-1.82-58.77t-11.39-30.06q-9.57-9.57-30.07-11.39T878.76 472H791.3q-38.26 0-58.77 1.82t-30.06 11.39q-9.57 9.56-11.39 30.06T689.26 574zm167.63-320.7q0-16.4.92-25.06c.59-5.76 2.27-10 5-12.75s7-4.4 12.75-5 14.12-.91 25.06-.91 19.27.31 25 .91 10 2.27 12.76 5 4.4 7 5 12.75.91 14.13.91 25.06v553.93q0 16.39-.91 25.06T1230 845c-2.74 2.73-7 4.41-12.76 5s-14.12.91-25 .91-19.29-.3-25.06-.91-10-2.28-12.75-5-4.42-7-5-12.75-.92-14.13-.92-25.06zm561.21 510.2q16.39 0 25.06.91c5.76.61 10 2.28 12.75 5s4.4 7 5 12.75.91 14.13.91 25.06-.31 19.29-.91 25.06-2.28 10-5 12.75-7 4.41-12.75 5-14.13.91-25.06.91h-160.35q-58.3 0-97.94-1.37t-65.6-7.74q-26-6.36-40.08-20.5t-20.5-40.08q-6.39-26-7.75-65.6t-1.36-97.94q0-58.31 1.36-97.94t7.75-65.6q6.36-26 20.5-40.09t40.08-20.5q26-6.36 65.6-7.74t97.94-1.37q58.31 0 97.94 1.37t65.6 7.74q26 6.39 40.09 20t20.5 37.81q6.36 24.15 7.74 61t1.37 90.65q0 21.87-.91 33.71t-6.38 17.31c-3.65 3.64-9.42 5.78-17.31 6.38s-19.13.91-33.71.91h-320.7q0 38.26 1.82 58.76t11.39 30.07q9.57 9.56 30.07 11.39t58.76 1.82zM1695.07 574q0-38.28-1.83-58.77t-11.39-30.06q-9.55-9.57-30.06-11.39T1593 472h-87.46q-38.26 0-58.76 1.82t-30.07 11.39q-9.57 9.56-11.39 30.06t-1.8 58.73zm459.17 189.5c12.76 0 22.46-.3 29.16-.91s11.68-2.58 15-5.93 5.31-8.34 5.92-15 .91-16.4.91-29.15-.31-22.46-.91-29.16-2.59-11.68-5.92-15-8.36-5.31-15-5.92-16.4-.91-29.16-.91h-160.35q-51.93 0-79.72-2.28t-41-15.49q-13.23-13.2-15.49-41t-2.27-79.75q0-51.94 2.28-79.72t15.49-41q13.18-13.2 41-15.49t79.72-2.28h240.53c10.93 0 19.27.32 25 .91s10 2.28 12.76 5 4.39 7 5 12.76.91 14.12.91 25.05-.32 19.29-.91 25.06-2.28 10-5 12.75-7 4.42-12.76 5-14.12.92-25 .92h-240.54q-19.12 0-29.15.91t-15 5.92q-5 5-5.92 15t-.92 29.16q0 19.13.92 29.15t5.92 15q5 5 15 5.93t29.15.91h160.35q51.93 0 79.72 2.27t41 15.49q13.2 13.22 15.49 41t2.28 79.72q0 51.93-2.28 79.72t-15.49 41q-13.22 13.21-41 15.48t-79.72 2.38h-255.1q-16.4 0-25.05-.91c-5.78-.6-10-2.28-12.76-5s-4.41-7-5-12.75-.91-14.13-.91-25.06.3-19.28.91-25.06 2.28-10 5-12.75 7-4.4 12.76-5 14.12-.91 25.05-.91zM2467.66 472h-87.47q-16.39 0-25.05-.92c-5.78-.59-10-2.27-12.76-5s-4.41-7-5-12.75-.91-14.12-.91-25.06.3-19.27.91-25.05 2.28-10 5-12.76 7-4.39 12.76-5 14.12-.91 25.05-.91h87.47v-72.94q0-16.41.91-25.06c.6-5.76 2.28-10 5-12.75s7-4.4 12.75-5 14.13-.92 25.06-.92 19.27.32 25.05.92 10 2.27 12.76 5 4.4 7 5 12.75.91 14.12.91 25.06v72.88h87.46c10.93 0 19.28.32 25.06.91s10 2.28 12.75 5 4.4 7 5 12.76.91 14.12.91 25.05-.31 19.29-.91 25.06-2.27 10-5 12.75-7 4.42-12.75 5-14.13.92-25.06.92h-87.46v335.29q0 16.39-.91 25.06t-5 12.75c-2.74 2.73-7 4.41-12.76 5s-14.12.91-25.05.91-19.29-.3-25.06-.91-10-2.28-12.75-5-4.41-7-5-12.75-.91-14.13-.91-25.06zm641.39 102q0-38.28-1.82-58.77t-11.39-30.06q-9.56-9.57-30.06-11.39T3007 472h-204.07q-16.39 0-25-.92c-5.78-.59-10-2.27-12.76-5s-4.41-7-5-12.75-.91-14.12-.91-25.06.3-19.27.91-25.05 2.28-10 5-12.76 7-4.39 12.76-5 14.12-.91 25-.91h160.35q58.29 0 97.94 1.37t65.6 7.74q26 6.39 40.09 20.5t20.5 40.09q6.36 26 7.74 65.6t1.37 97.94v174.86q0 21.87-.91 33.71t-6.38 17.31q-5.47 5.48-17.31 6.38t-33.71.91h-269.68q-51.93 0-79.72-2.28t-41-15.48q-13.21-13.2-15.49-41t-2.27-79.72q0-51.93 2.27-79.72t15.49-41q13.2-13.2 41-15.49t79.72-2.27zm0 189.5v-102h-240.52q-19.14 0-29.15.91t-15 5.92q-5 5-5.92 15c-.61 6.7-.91 16.4-.91 29.16s.3 22.48.91 29.15 2.58 11.71 5.92 15 8.34 5.33 15 5.93 16.39.91 29.15.91zm319.78-145.77L3274 461.93q-11-10.93-16.9-17.31t-5.93-12.75q0-3.63 6.84-12.76a212 212 0 0 1 15.99-18.67 169.64 169.64 0 0 1 17.77-16.4q8.64-6.84 13.21-6.84 6.36 0 12.75 5.93t18.23 17.76l155.74 154.88 155.79-154.88q10.94-10.93 16.86-17.31c3.94-4.24 8.34-6.38 13.21-6.38q3.63 0 12.75 6.84a192 192 0 0 1 35.08 35.07q6.83 9.12 6.83 12.76c0 4.87-2.13 9.26-6.37 13.21s-10 9.57-17.32 16.85l-154.88 155.8 154.88 155.79q11.83 11.85 17.77 18.22t5.92 12.76q0 4.56-6.83 13.21a168.6 168.6 0 0 1-16.4 17.76 210.56 210.56 0 0 1-18.68 15.95q-9.11 6.83-12.75 6.83-6.39 0-12.76-5.92t-17.31-16.86L3491.7 680.59l-155.79 154.88q-11.86 11.85-18.23 17.32t-12.75 5.46q-3.64 0-12.76-6.83a182.2 182.2 0 0 1-34.17-34.17q-6.84-9.09-6.84-12.75 0-6.36 5.47-12.76t17.37-18.22z" transform="translate(-193.64 -209.57)"/></svg>