<svg version="1.1" id="Layer_1" xmlns="http://www.w3.org/2000/svg" x="0" y="0" viewBox="0 0 33 33" xml:space="preserve"><style>.st0{fill:#7d60a8}</style><path class="st0" d="M25.1 10V8.3h-1c-2.8 0-6.5 1-8.2 3.7-1.7-2.7-5.4-3.7-8.2-3.7h-1V10h-2v16h7.2c1.4 1.3 1.7 1.3 1.8 1.3h4.6c.1 0 .4 0 1.8-1.3h7.6V10h-2.6zm-8.7 3c1.3-2.8 5-3.8 7.8-3.8h.1v12.9h-.1c-3.5 0-6.1.7-7.8 2V13zM7.7 9.2c2.9 0 6.5 1 7.8 3.8v11.1c-1.7-1.3-4.3-2-7.8-2h-.1l.1-12.9zm19.2 15.9h-7.1l-.1.1c-.5.5-1.2 1.1-1.4 1.2h-4.5c-.2-.1-.9-.7-1.4-1.2l-.1-.1H5.6V10.9h1.2V23h1c3.4 0 6 .7 7.5 2.1l.1.1h1.2l.1-.1c1.5-1.3 4.1-2 7.5-2.1h1V10.9h1.7v14.2z"/><path class="st0" d="M18.3 27.5h-4.6c-.2 0-.5 0-1.9-1.3H4.5V9.8h2V8h1.2c2.7 0 6.3.9 8.2 3.5C17.8 9 21.4 8 24.1 8h1.2v1.7H28v16.5h-7.8c-1.4 1.3-1.7 1.3-1.9 1.3zM5 25.8h7l.1.1c1.3 1.2 1.6 1.2 1.6 1.2h4.6c.1 0 .4-.1 1.6-1.2l.1-.1h7.4V10.2h-2.6V8.5H24c-2.6 0-6.3.9-8 3.6l-.2.3-.2-.3c-1.7-2.6-5.3-3.6-8-3.6H7v1.7H5v15.6zm13.4.9h-4.7c-.2-.1-1-.8-1.5-1.2H5.4V10.6H7v12.1h.8c3.5 0 6.2.7 7.7 2.2h1c1.5-1.3 4.2-2.1 7.7-2.2h.8V10.6h2.2v14.7h-7.3c-.5.6-1.2 1.2-1.5 1.4zm-4.5-.5h4.4c.2-.1.8-.6 1.3-1.1l.2-.2h7V11.1h-1.2v12.1h-1.2c-3.4.1-5.9.8-7.3 2l-.2.2h-1.4l-.2-.2c-1.4-1.3-4-2-7.3-2H6.5V11.1h-.6v13.7h6.6l.2.2c.4.5 1 1 1.2 1.2zm2.2-1.6V12.9c1.4-2.9 5.2-3.9 8-3.9h.3v13.4h-.3c-3.4 0-6 .7-7.6 1.9l-.4.3zm.5-11.5v10.6c1.7-1.2 4.2-1.7 7.4-1.8V9.5c-2.6 0-6.1.9-7.4 3.6zm-.8 11.5l-.4-.3c-1.7-1.3-4.3-1.9-7.6-1.9h-.4V9h.4c3 0 6.7 1 8 3.9v11.7zm-7.9-2.8c3.2 0 5.7.6 7.4 1.8V13.1c-1.2-2.6-4.6-3.6-7.4-3.6v12.3z"/></svg>