<svg xmlns="http://www.w3.org/2000/svg" viewBox="0 0 33 33"><path d="M25.1 10V8.3h-1c-2.8 0-6.5 1-8.2 3.7-1.7-2.7-5.4-3.7-8.2-3.7h-1V10h-2v16h7.2c1.4 1.3 1.7 1.3 1.8 1.3h4.6c.1 0 .4 0 1.8-1.3h7.6V10h-2.6zm-8.7 3c1.3-2.8 5-3.8 7.8-3.8h.1v12.9h-.1c-3.5 0-6.1.7-7.8 2V13zM7.7 9.2c2.9 0 6.5 1 7.8 3.8v11.1c-1.7-1.3-4.3-2-7.8-2h-.1l.1-12.9zm19.2 15.9h-7.1l-.1.1c-.5.5-1.2 1.1-1.4 1.2h-4.5c-.2-.1-.9-.7-1.4-1.2l-.1-.1H5.6V10.9h1.2V23h1c3.4 0 6 .7 7.5 2.1l.1.1h1.2l.1-.1c1.5-1.3 4.1-2 7.5-2.1h1V10.9h1.7v14.2z" fill="#7fba59"/></svg>