<svg xmlns="http://www.w3.org/2000/svg" viewBox="0 0 31.3 26.1"><path d="M18.1 21.5c-.3 0-.5-.1-.7-.3l-5.3-4.7c-.1-.1-.3-.2-.4-.2H9.9c-1.2 0-2.1-.9-2.1-2.1V10c0-1.1.9-2 2.1-2h1.8c.1 0 .2 0 .3-.2l5.3-4.7.1-.1c.4-.2.8-.2 1.1.1.3.2.5.5.5.9v16.5c0 .4-.2.8-.6 1h-.3zM9.9 9c-.6 0-1.1.5-1.1 1.1v4.2c0 .6.5 1.1 1.1 1.1h1.8c.3 0 .7.1 1.1.4l5.3 4.7V4c-.1 0-.1-.1-.1-.1l-5.2 4.6c-.3.3-.6.4-1 .4H9.9zM23 19.6c-.1 0-.3 0-.3-.1-.2-.2-.2-.5 0-.7 3.5-3.6 3.5-9.2 0-12.9-.2-.2-.2-.5 0-.7.2-.2.5-.2.7 0 3.9 4.1 3.9 10.3 0 14.3-.1 0-.3.1-.4.1zM20.8 17c-.1 0-.2 0-.3-.1-.2-.2-.2-.5 0-.7 2-2.2 2-5.5 0-7.7-.2-.2-.2-.5 0-.7.2-.2.5-.2.7 0 2.4 2.6 2.4 6.5 0 9.1-.1 0-.3.1-.4.1z" fill="#80ba59"/></svg>