<svg version="1.1" id="Layer_1" xmlns="http://www.w3.org/2000/svg" x="0" y="0" viewBox="0 0 100 80" xml:space="preserve"><style>.st0{fill:#fff}</style><path class="st0" d="M48.3 74c-.2 0-.4 0-.6-.1-6.4-2.9-15-8.4-19.9-18-3.5-6.9-3.9-13.6-4.6-23.9-.4-5.5-.4-11.1 0-16.5.1-.8.7-1.4 1.5-1.4h.5c4.9 0 9.7-.8 14.2-2.5 2.8-1 5.6-2.3 8.1-3.9.2-.1.5-.2.8-.2.3 0 .5.1.8.2 2.6 1.6 5.3 2.9 8.1 3.9 4.5 1.6 9.3 2.5 14.2 2.5h.5c.8 0 1.4.6 1.5 1.4.4 5.5.4 11 0 16.5-.7 10.2-1.2 17-4.6 23.9-4.9 9.7-13.5 15.2-19.9 18-.2 0-.4.1-.6.1z"/><path d="M48.3 8.7h.1c2.6 1.7 5.5 3 8.4 4.1 4.7 1.7 9.6 2.5 14.7 2.5h.5c.1 0 .2.1.2.2.4 5.4.4 10.9 0 16.4-.7 10.1-1.1 16.7-4.5 23.4C63 64.7 54.6 70 48.4 72.8h-.2C42 70 33.7 64.7 28.9 55.3c-3.4-6.6-3.8-13.3-4.5-23.4-.4-5.4-.4-10.9 0-16.4 0-.1.1-.2.2-.2h.5c5 0 10-.9 14.7-2.5 2.9-1 5.7-2.4 8.4-4.1h.1m0-2.5c-.5 0-1 .1-1.4.4-2.1 1.3-4.7 2.7-7.9 3.8-5.3 1.9-10.1 2.4-13.8 2.4h-.5c-1.4 0-2.6 1.1-2.7 2.5-.3 4.4-.5 10.1 0 16.7.7 10.2 1.2 17.2 4.8 24.3 5 9.8 13.5 15.4 20.5 18.6.4.2.7.2 1.1.2s.8-.1 1.1-.2c7-3.2 15.5-8.8 20.5-18.6 3.6-7.1 4.1-14.1 4.8-24.3.5-6.6.3-12.3 0-16.7-.1-1.4-1.3-2.5-2.7-2.5h-.5c-3.7 0-8.5-.5-13.8-2.4-3.1-1.1-5.8-2.5-7.9-3.8-.6-.3-1.1-.4-1.6-.4z" fill="#44a5ab"/><path class="st0" d="M56.4 69.6c-.1-.1-.1-.2-.2-.3l-.6-.9c-.2-.3-.5-.6-.8-.8 0-.8-.1-1.7-.3-2.5 2.1-2.9 4.2-5.9 6.3-9l.9-1.5s0-.1.1-.1c.6-.7 1.1-1.6 1.4-2.5l.6-1.1c1-1.9 1.9-3.6 3-5.3 0 0 .9-1.3 1.1-1.5.4-.1.8-.2 1.1-.4.4 0 .8-.1 1.2-.2.8.5 1.6.7 2.5.8-.7 3.8-1.9 7.5-3.9 11.4-2.9 5.5-7 10.1-12.4 13.9z"/><path class="st0" d="M69.8 45.2c.3.2.7.3 1 .4-.7 3.2-1.8 6.3-3.5 9.6-2.4 4.7-5.9 8.8-10.6 12.2-.2-.2-.3-.4-.5-.5 0-.5-.1-1-.2-1.5 1.9-2.7 4-5.5 5.9-8.4.3-.4.6-.9.9-1.4.7-.9 1.2-1.8 1.6-2.8.2-.3.4-.7.5-1 1-1.8 1.9-3.5 2.9-5.1.2-.3.3-.5.5-.8.1-.1.1-.2.2-.3.2-.1.4-.1.6-.2.3-.1.5-.2.7-.2m.5-3.2c-.5.2-1.1.3-1.8.3-.5.2-1 .4-1.6.5-.5.7-1 1.4-1.4 2-1.5 2.1-2.6 4.4-3.8 6.7-.2.8-.6 1.5-1.1 2.1l-.1.1c-.3.5-.6 1-1 1.5-2.1 3.2-4.4 6.4-6.6 9.5l-.1.1c.5 1 .7 2.2.5 3.3.1.1.2.2.4.3.3.2.6.5.9.8.2.2.3.4.4.6.3.6.6 1.2.7 1.8 5.3-3.1 10.7-8 14.3-15 2.2-4.3 3.7-8.7 4.3-13.7-.2 0-.9.1-1 .1-1.3 0-2.3-.4-3-1z"/><path d="M77.8 57.1h-18c-2 0-3.5 1.6-3.5 3.5v11c0 2 1.6 3.5 3.5 3.5h18c2 0 3.5-1.6 3.5-3.5v-11c0-1.9-1.6-3.5-3.5-3.5zm-17.2 4c-.1 0-.2.1-.2.2v10c0 .5-.4.8-.8.8-.5 0-.8-.4-.8-.8v-10c0-1.1.9-1.9 1.9-1.9.5 0 .8.4.8.8-.1.5-.4.9-.9.9zm9.7 5.1v3c0 .8-.7 1.5-1.5 1.5s-1.5-.7-1.5-1.5v-3c-.6-.5-1-1.2-1-2 0-1.4 1.1-2.5 2.5-2.5s2.5 1.1 2.5 2.5c0 .8-.4 1.6-1 2zm-6.4-14.3c0-2.7 2.2-4.9 4.9-4.9s4.9 2.2 4.9 4.9v3.9h4v-3.9c0-4.9-4-8.9-8.9-8.9s-8.9 4-8.9 8.9v3.9h4v-3.9z" fill="#e63a29"/><text transform="translate(30.88 40.855)" letter-spacing="1" font-size="15.799" font-family="Roboto-Medium" fill="#44a5ab" stroke="#44a5ab" stroke-width=".5" stroke-miterlimit="10">VPN</text></svg>