<svg version="1.1" id="Layer_1" xmlns="http://www.w3.org/2000/svg" x="0" y="0" viewBox="0 0 100 80" xml:space="preserve"><style>.st1{fill:#fff}</style><path d="M58.8 28c.7 2 .8 4 .2 5.6-.6 1.7-1.8 3-3.7 3.7h-.1c-.8.3-1.9.5-3.2.8-4.3 1-10.8 2.4-10 6.5.2.8.8 1.4 1.6 1.9.9.6 2.2 1 3.3 1.2 3.5.8 5.4 1.9 6.1 3.1.6.9.5 1.9-.1 2.7-.5.7-1.3 1.3-2.3 1.8-3.2 1.6-9 2.5-13.1 1.4-3.4-.9-6.6-2.8-9.1-5.3s-4.3-5.5-5.2-9c-.1-.4-.2-.9-.3-1.4-1-5.3.3-10.3 3-14.2 2.7-3.9 6.8-6.8 11.6-8 .4-.1.9-.2 1.4-.3 4.9-.9 9-.3 12.2 1.2 4 1.8 6.6 5 7.7 8.1v.2zm-10.7-2.7c-1 0-1.8.4-2.4 1-.6.6-1 1.5-1 2.4 0 1 .4 1.8 1 2.4.6.6 1.5 1 2.4 1 1 0 1.8-.4 2.4-1 .6-.6 1-1.5 1-2.4 0-1-.4-1.8-1-2.4-.5-.6-1.4-1-2.4-1zm-9.3 1.2c-.7 0-1.4.3-1.9.8s-.7 1.2-.7 1.9.3 1.4.7 1.9c.5.5 1.1.8 1.9.8.7 0 1.4-.3 1.9-.8s.7-1.2.7-1.9-.3-1.4-.7-1.9c-.5-.5-1.1-.8-1.9-.8zm-6.7 4.7a2.732 2.732 0 0 0-2.7 2.7 2.732 2.732 0 0 0 2.7 2.7 2.732 2.732 0 0 0 2.7-2.7 2.732 2.732 0 0 0-2.7-2.7zm.6 8.2a2.732 2.732 0 0 0-2.7 2.7 2.732 2.732 0 0 0 2.7 2.7 2.732 2.732 0 0 0 2.7-2.7 2.732 2.732 0 0 0-2.7-2.7z" fill-rule="evenodd" clip-rule="evenodd" fill="#fff"/><path class="st1" d="M54 68.9l-1.1-.7c-.3-.2-.4-.6-.3-.9l12.4-26s.1 0 .1.1l6 3.4h.1L54.9 68.7c-.2.3-.6.4-.9.2zm22.2-36.1c0 1.8-.1 3.6-1 5.5-.4.9-1.1 1.5-1.9 1.8l-5.1-2.9c-.1-.9.1-1.9.7-3 .9-1.6 3-2.8 5.2-4 .4-.2.9-.5 1.3-.7.1-.1.3-.1.5-.1.4.1.6.4.6.8-.3.8-.3 1.7-.3 2.6z"/><path transform="rotate(30 69.297 40.795)" class="st1" d="M65.8 39.3h6.9v3.1h-6.9z"/></svg>